<svg width="24" height="24" viewBox="0 0 24 24" fill="none" xmlns="http://www.w3.org/2000/svg">
<path d="M16.833 4.0056C18.4745 4.05967 20.0776 4.51219 21.5 5.32298C21.6346 5.3997 21.7494 5.50642 21.835 5.6345C21.9205 5.76259 21.9748 5.90894 21.9932 6.06126L22 6.17845V19.0134C21.9999 19.1865 21.9539 19.3566 21.8662 19.5066C21.7785 19.6566 21.652 19.7813 21.5 19.8679C21.348 19.9546 21.1755 20.0007 21 20.0007C20.8245 20.0007 20.652 19.9546 20.5 19.8679C19.2839 19.1747 17.9043 18.8103 16.5 18.8103C15.0957 18.8103 13.7161 19.1747 12.5 19.8679C12.348 19.9546 12.1755 20.0007 12 20.0007C11.8245 20.0007 11.652 19.9546 11.5 19.8679C10.3287 19.2001 9.00468 18.8368 7.65234 18.8113C6.30006 18.7857 4.9629 19.0994 3.7666 19.7224L3.44043 19.9001L3.33691 19.9431L3.28809 19.9587L3.17773 19.9841L3.11719 19.9949L3 20.0007H2.95801L2.84766 19.989L2.77148 19.9743L2.66309 19.9431L2.53711 19.8874L2.44238 19.8327L2.35254 19.7663L2.29297 19.7107L2.21973 19.6306L2.15625 19.5427L2.13379 19.5066L2.10156 19.447L2.05762 19.3454L2.04199 19.2976L2.01562 19.1892L2.00586 19.1286L2.00195 19.0798L2 19.0134V6.17845C2 6.00515 2.04602 5.83439 2.13379 5.68431C2.22155 5.53427 2.34802 5.40961 2.5 5.32298C3.92237 4.51219 5.52548 4.05967 7.16699 4.0056C8.80844 3.95158 10.4382 4.29803 11.9121 5.01341L12 5.05638L12.0879 5.01341C13.5618 4.29803 15.1916 3.95158 16.833 4.0056ZM12 5.99974C11.5859 5.99974 11.2501 6.33563 11.25 6.74974V18.2497C11.25 18.664 11.5858 18.9997 12 18.9997C12.4142 18.9997 12.75 18.664 12.75 18.2497V6.74974C12.7499 6.33563 12.4141 5.99974 12 5.99974Z" fill="#6868FF"/>
</svg>
