<svg width="25" height="24" viewBox="0 0 25 24" fill="none" xmlns="http://www.w3.org/2000/svg">
<path d="M17.4167 10.3931H8.08333C7.34695 10.3931 6.75 11.1257 6.75 12.0294V17.7567C6.75 18.6604 7.34695 19.3931 8.08333 19.3931H17.4167C18.153 19.3931 18.75 18.6604 18.75 17.7567V12.0294C18.75 11.1257 18.153 10.3931 17.4167 10.3931Z" stroke="#FEFEFE" stroke-width="1.5" stroke-linecap="round" stroke-linejoin="round"/>
<path d="M15.75 10V7.77778C15.75 7.04107 15.4339 6.33453 14.8713 5.81359C14.3087 5.29266 13.5456 5 12.75 5C11.9544 5 11.1913 5.29266 10.6287 5.81359C10.0661 6.33453 9.75 7.04107 9.75 7.77778V10" stroke="#FEFEFE" stroke-width="1.5" stroke-linecap="round" stroke-linejoin="round"/>
</svg>
