<svg width="76" height="75" viewBox="0 0 76 75" fill="none" xmlns="http://www.w3.org/2000/svg">
<path d="M0.650391 75.1753C0.650391 75.1753 7.60476 53.8367 4.2945 36.6992C2.41458 26.9664 5.40435 16.05 10.2755 10.8672C15.4153 5.3976 20.0529 2.50026 24.89 1.75158C33.5581 0.408212 37.2172 0.69147 47.3371 3.58896C55.6369 7.73889 61.2749 12.4938 63.9368 17.0762C66.6832 21.8013 65.8093 33.2411 63.9368 40.9383C61.8618 46.1257 55.6369 61.688 68.0867 52.3506C72.0618 49.3693 70.562 57.0844 69.1242 59.613C64.9743 67.9128 75.4941 71.8246 75.3472 75.1753H0.650391Z" fill="#6868FF"/>
<path d="M34.0654 35.7155C33.1606 38.6923 30.0406 41.1019 26.5298 40.2714C24.5039 39.7928 23.3422 37.8182 23.7303 35.7155C23.9291 35.0609 24.3186 34.6313 24.9732 34.4895C27.1086 34.0313 28.6233 33.5009 29.3171 31.9299C30.1488 29.1917 28.4773 27.0849 24.0549 25.214L24.9813 22.8862C32.3762 24.8471 35.8194 29.9417 34.0654 35.7155Z" fill="#FEFEFE"/>
<path d="M21.0198 35.7155C20.1151 38.6923 16.9951 41.1019 13.4843 40.2714C11.4584 39.7928 10.2967 37.8182 10.6848 35.7155C10.8836 35.0609 11.2731 34.6313 11.9277 34.4895C14.0631 34.0313 15.5778 33.5009 16.2716 31.9299C17.1033 29.1917 15.4317 27.0849 11.0094 25.214L11.9358 22.8862C19.3307 24.8471 22.7739 29.9417 21.0198 35.7155Z" fill="#FEFEFE"/>
<path d="M61.3444 47.6818L66.5318 52.8692M63.9381 39.9007C63.9381 34.1708 59.2932 29.5259 53.5633 29.5259C47.8334 29.5259 43.1885 34.1708 43.1885 39.9007C43.1885 45.6306 47.8334 50.2755 53.5633 50.2755C59.2932 50.2755 63.9381 45.6306 63.9381 39.9007Z" stroke="#FEFEFE" stroke-width="3" stroke-linecap="round" stroke-linejoin="round"/>
</svg>
