<svg width="546" height="576" viewBox="0 0 546 576" fill="none" xmlns="http://www.w3.org/2000/svg">
<g clip-path="url(#clip0_2573_83162)">
<path d="M1.54785 575.754C1.54785 575.754 48.4179 424.694 26.1079 303.374C13.4379 234.474 33.5879 157.194 66.4179 120.504C101.058 81.7838 148.608 56.5238 181.208 51.2238C239.628 41.7138 274.508 46.2438 338.118 55.9738C390.138 63.9438 414.928 89.4238 432.868 121.864C451.378 155.314 445.598 207.454 432.978 261.944C421.998 309.334 438.648 347.034 494.338 341.944C515.018 340.054 540.028 358.684 530.338 376.584C514.888 405.114 505.968 552.034 504.978 575.754H1.54785Z" fill="#FF8BAC"/>
<path d="M243.378 115.254C243.378 115.254 98.3385 166.684 47.3985 112.354C-3.54157 58.0138 172.738 4.54377 274.618 1.14377C376.498 -2.25623 387.368 24.9138 366.998 45.9738C346.618 67.0338 243.378 115.254 243.378 115.254Z" fill="white"/>
<path d="M236.969 202.074L243.819 219.144C211.119 232.864 198.749 248.314 204.909 268.394C210.039 279.904 221.239 283.794 237.029 287.164C241.869 288.194 244.749 291.344 246.219 296.154C249.089 311.574 240.499 326.054 225.519 329.564C199.559 335.644 176.489 317.984 169.799 296.154C156.819 253.804 182.279 216.464 236.969 202.084V202.074Z" fill="white"/>
<path d="M333.43 202.074L340.28 219.144C307.58 232.864 295.21 248.314 301.37 268.394C306.5 279.904 317.7 283.794 333.49 287.164C338.33 288.194 341.21 291.344 342.68 296.154C345.55 311.574 336.959 326.054 321.979 329.564C296.019 335.644 272.949 317.984 266.259 296.154C253.279 253.804 278.74 216.464 333.43 202.084V202.074Z" fill="white"/>
<path d="M501.568 261.124C503.118 262.984 502.998 265.424 502.398 267.774C495.698 293.824 455.558 415.974 471.418 423.954C502.158 439.414 514.038 317.144 522.028 269.674C522.468 267.084 523.388 264.614 525.808 263.594C532.268 260.894 552.078 245.704 543.018 224.874C533.038 201.914 533.268 179.704 533.278 179.594C534.568 168.564 524.788 166.054 517.738 174.634C514.948 178.034 511.838 182.094 508.368 186.954C484.408 220.494 488.298 245.174 501.558 261.124H501.568Z" fill="#FB5A88"/>
</g>
<defs>
<clipPath id="clip0_2573_83162">
<rect width="545" height="576" fill="white" transform="translate(0.950195)"/>
</clipPath>
</defs>
</svg>
