<svg width="538" height="563" viewBox="0 0 538 563" fill="none" xmlns="http://www.w3.org/2000/svg">
<g clip-path="url(#clip0_2573_83168)">
<path d="M12.4463 562.754C12.4463 562.754 100.066 405.174 58.6363 290.374C34.8463 224.474 50.2963 137.034 81.3363 90.7439C110.266 47.6039 188.336 13.1539 226.016 5.16387C315.676 -13.8561 312.536 31.2639 337.996 30.8539C380.106 30.1739 426.481 28.3614 460.441 73.8714C492.011 116.171 512.474 176.917 498.271 251.345C475.492 370.706 539.956 504.054 537.506 562.754H12.4463Z" fill="#A0F8E8"/>
<path d="M246.105 402.414C244.665 391.694 355.675 352.894 359.485 360.984C363.565 369.644 299.205 429.924 286.975 428.904C275.125 427.914 247.405 412.094 246.105 402.414Z" fill="#4FD9C0"/>
<path d="M240.465 400.173C241.905 389.453 130.895 350.653 127.085 358.743C123.005 367.403 187.365 427.683 199.595 426.663C211.445 425.673 239.165 409.853 240.465 400.173Z" fill="#4FD9C0"/>
<path d="M16.8346 277.134C16.8346 277.134 62.4446 267.474 79.0146 273.744C92.2746 278.754 90.9346 300.594 92.3346 315.514C93.7346 330.434 101.614 342.234 129.344 337.124C170.804 329.484 196.414 309.524 206.684 307.424C214.494 305.834 219.524 315.714 215.614 321.894C210.414 330.114 115.664 382.534 86.4746 384.654C21.4146 389.374 5.98456 355.664 2.56456 323.664C-1.46544 285.914 4.60456 280.194 16.8246 277.134H16.8346Z" fill="white"/>
<path d="M128.966 189.053C135.656 167.223 158.726 149.553 184.686 155.643C199.666 159.153 208.256 173.633 205.386 189.053C203.916 193.853 201.036 197.003 196.196 198.043C180.406 201.403 169.206 205.293 164.076 216.813C157.926 236.893 170.286 252.343 202.986 266.063L196.136 283.133C141.456 268.753 115.996 231.403 128.966 189.063V189.053Z" fill="white"/>
<path d="M225.427 189.053C232.117 167.223 255.187 149.553 281.147 155.643C296.127 159.153 304.717 173.633 301.847 189.053C300.377 193.853 297.497 197.003 292.657 198.043C276.867 201.403 265.667 205.293 260.537 216.813C254.387 236.893 266.747 252.343 299.447 266.063L292.597 283.133C237.917 268.753 212.457 231.403 225.427 189.063V189.053Z" fill="white"/>
</g>
<defs>
<clipPath id="clip0_2573_83168">
<rect width="537" height="563" fill="white" transform="translate(0.950195)"/>
</clipPath>
</defs>
</svg>
