<svg width="528" height="595" viewBox="0 0 528 595" fill="none" xmlns="http://www.w3.org/2000/svg">
<g clip-path="url(#clip0_2573_83133)">
<path d="M1.5127 594.754C1.5127 594.754 60.9927 470.784 55.0627 381.374C51.9027 333.684 0.572696 270.874 8.5427 243.554C18.7527 208.564 66.5327 216.854 83.9727 183.984C105.832 142.804 58.5027 73.7738 78.8827 54.0738C116.483 17.7238 189.673 100.644 229.673 84.6438C256.843 73.7838 255.782 -2.03622 292.842 0.423783C335.332 3.24378 384.523 118.894 405.553 122.074C449.363 128.694 498.653 93.8138 523.783 120.984C539.593 138.074 498.742 245.654 490.162 289.774C473.182 377.054 529.023 536.054 526.562 594.754H1.5127Z" fill="#C8A5FF"/>
<path d="M409.373 313.363C402.683 335.193 379.613 352.863 353.653 346.773C338.673 343.263 330.083 328.783 332.953 313.363C334.423 308.563 337.303 305.413 342.143 304.373C357.933 301.013 369.133 297.123 374.263 285.603C380.413 265.523 368.053 250.073 335.353 236.353L342.203 219.283C396.883 233.663 422.343 271.013 409.373 313.353V313.363Z" fill="white"/>
<path d="M312.923 313.363C306.233 335.193 283.163 352.863 257.203 346.773C242.223 343.263 233.633 328.783 236.503 313.363C237.973 308.563 240.853 305.413 245.693 304.373C261.483 301.013 272.683 297.123 277.813 285.603C283.963 265.523 271.603 250.073 238.903 236.353L245.753 219.283C300.433 233.663 325.893 271.013 312.923 313.353V313.363Z" fill="white"/>
<path d="M329.443 372.424C328.553 374.154 326.443 374.754 325.133 373.314C315.793 363.084 293.373 343.454 256.893 389.024C232.883 419.014 229.843 425.634 223.063 438.144C221.213 441.554 222.203 445.904 226.443 446.664C235.973 448.384 246.783 447.824 271.443 443.524C310.003 436.794 319.763 426.944 328.473 421.274C330.393 420.024 332.863 420.064 334.773 421.334C341.603 425.894 363.153 435.534 398.013 439.844C416.353 442.104 432.053 440.374 438.783 436.814C443.073 434.544 443.953 428.764 440.553 425.304C429.673 414.214 402.503 388.264 388.593 375.384C366.753 355.164 338.753 354.324 329.443 372.434V372.424Z" fill="#A76FFF"/>
</g>
<defs>
<clipPath id="clip0_2573_83133">
<rect width="527" height="595" fill="white" transform="translate(0.950195)"/>
</clipPath>
</defs>
</svg>
