<svg width="648" height="552" viewBox="0 0 648 552" fill="none" xmlns="http://www.w3.org/2000/svg">
<g clip-path="url(#clip0_2573_83138)">
<path d="M114.352 551.754C114.352 551.754 143.227 453.059 114.352 370.005C124.374 319.018 140.38 378.667 194.923 353.703C224.604 340.118 166.487 125.866 194.923 75.4157C241.718 -7.62074 389.744 -10.2515 471.319 12.6997C530.044 29.2275 555.896 59.5811 574.567 89.4656C606.796 141.017 595.532 201.755 580.88 276.848C564.127 362.76 650.462 491.903 647.836 551.754H114.352Z" fill="#FDB770"/>
<path d="M464.441 298.793C443.471 298.793 426.481 317.903 426.481 341.473C426.481 365.043 443.481 384.153 464.441 384.153C485.401 384.153 502.401 365.043 502.401 341.473C502.401 317.903 485.401 298.793 464.441 298.793ZM464.441 373.503C448.701 373.503 435.951 359.163 435.951 341.473C435.951 323.783 448.711 309.443 464.441 309.443C480.171 309.443 492.931 323.783 492.931 341.473C492.931 359.163 480.171 373.503 464.441 373.503Z" fill="white"/>
<path d="M497.141 343.403C504.101 335.963 525.881 337.903 533.651 343.403" stroke="white" stroke-width="8" stroke-miterlimit="10"/>
<path d="M565.832 298.793C544.862 298.793 527.872 317.903 527.872 341.473C527.872 365.043 544.872 384.153 565.832 384.153C586.792 384.153 603.792 365.043 603.792 341.473C603.792 317.903 586.792 298.793 565.832 298.793ZM565.832 373.503C550.092 373.503 537.342 359.163 537.342 341.473C537.342 323.783 550.102 309.443 565.832 309.443C581.562 309.443 594.322 323.783 594.322 341.473C594.322 359.163 581.562 373.503 565.832 373.503Z" fill="white"/>
<path d="M2.42053 288.509L65.7057 372.46C67.5149 374.865 70.6597 375.848 73.5131 374.889C83.7126 371.453 108.446 364.301 127.619 368.308C129.646 368.733 131.735 368.259 133.35 366.984C140.089 361.702 154.829 351.102 188.585 342.87C193.211 341.741 195.409 336.459 192.919 332.403L138.583 244.142C137.187 241.871 134.625 240.596 131.966 240.839C118.828 242.053 88.7516 248.379 71.6554 264.176C70.4169 265.318 68.8141 265.973 67.1385 266.022C58.7968 266.265 28.672 263.448 4.31471 278.358C0.805613 280.508 -0.056484 285.243 2.42053 288.521V288.509Z" fill="#FF8B17"/>
<path d="M552.841 258.893C546.151 280.723 523.081 298.393 497.121 292.303C482.141 288.793 473.551 274.313 476.421 258.893C477.891 254.093 480.771 250.943 485.611 249.903C501.401 246.543 512.601 242.653 517.731 231.133C523.881 211.053 511.521 195.603 478.821 181.883L485.671 164.813C540.351 179.193 565.811 216.543 552.841 258.883V258.893Z" fill="white"/>
<path d="M456.38 258.893C449.69 280.723 426.62 298.393 400.66 292.303C385.68 288.793 377.09 274.313 379.96 258.893C381.43 254.093 384.31 250.943 389.15 249.903C404.94 246.543 416.14 242.653 421.27 231.133C427.42 211.053 415.06 195.603 382.36 181.883L389.21 164.813C443.89 179.193 469.35 216.543 456.38 258.883V258.893Z" fill="white"/>
</g>
<defs>
<clipPath id="clip0_2573_83138">
<rect width="647" height="552" fill="white" transform="translate(0.950195)"/>
</clipPath>
</defs>
</svg>
