<svg width="160" height="160" viewBox="0 0 160 160" fill="none" xmlns="http://www.w3.org/2000/svg">
  <g class="favicon-content">
<rect width="160" height="160" rx="14.6341" fill="#121212"/>
<path d="M39.3204 69.3787C37.3377 69.3787 36.1899 70.359 36.1899 72.6094C36.1899 77.3962 38.5377 84.0842 39.216 93.1415H17.5784C18.2566 83.6275 20.6045 77.5707 20.6045 72.6094C20.6045 70.359 19.6132 69.3787 17.5784 69.3787C15.5435 69.3787 12.6255 70.1288 10.2776 71.1092L9.75586 58.5352H47.0385L46.5168 71.1054C44.4298 70.1251 41.4595 69.3749 39.3204 69.3749V69.3787Z" fill="#6868FF"/>
<path d="M49.5391 58.5352H68.0499C67.3195 62.3415 66.9543 65.2826 66.9543 66.7829C66.9543 69.6089 67.9456 71.3951 69.4587 71.3951C70.9717 71.3951 72.0152 69.6089 72.0152 66.7829C72.0152 65.2826 71.65 62.3415 70.9196 58.5352H89.4304C87.8652 68.3389 87.8652 79.8731 89.4304 93.1378H70.9196C71.7022 87.6604 72.0674 83.6237 72.0674 81.6036C72.0674 78.7776 71.0239 76.9914 69.4587 76.9914C67.8934 76.9914 66.9021 78.7776 66.9021 81.6036C66.9021 83.6237 67.3717 87.6604 68.0499 93.1378H49.5391C51.1043 79.8731 51.1043 68.3389 49.5391 58.5352Z" fill="#6868FF"/>
<path d="M128.909 79.5832C128.909 86.1562 129.211 85.9854 130.098 93.1339H111.587C113.152 79.8692 113.152 68.335 111.587 58.5312H134.738C145.322 58.5312 149.757 63.318 149.757 72.1413C149.757 78.4358 145.296 83.2931 139.225 83.3339C134.428 83.3636 130.02 81.8596 128.909 79.5832Z" fill="#6868FF"/>
<path d="M100.678 93.4311C105.504 93.4311 109.417 91.2298 109.417 88.5144C109.417 85.7989 105.504 83.5977 100.678 83.5977C95.8512 83.5977 91.9385 85.7989 91.9385 88.5144C91.9385 91.2298 95.8512 93.4311 100.678 93.4311Z" fill="white"/>
<path d="M92.044 83.7708C94.1645 82.2631 97.2354 81.3124 100.657 81.3124C104.078 81.3124 107.152 82.2631 109.269 83.7708C108.636 75.3299 108.759 66.8594 109.649 58.4297H91.6602C92.5509 66.8594 92.6738 75.3299 92.0403 83.7745L92.044 83.7708Z" fill="white"/>
<path d="M137.584 66.994C134.886 68.0115 133.82 69.3187 133.82 70.4996C133.82 72.0073 135.292 72.5383 137.01 72.9022C137.215 72.9839 137.625 73.3924 137.625 74.2874C137.625 75.4274 136.682 76.69 134.886 76.69C132.84 76.69 130.675 75.1006 130.675 71.9627C130.675 68.3346 133.824 66.3404 136.973 65.5234L137.588 66.9903L137.584 66.994ZM145.254 66.994C142.556 68.0115 141.49 69.3187 141.49 70.4996C141.49 72.0073 142.962 72.5383 144.68 72.9022C144.885 72.9839 145.295 73.3924 145.295 74.2874C145.295 75.4274 144.352 76.69 142.556 76.69C140.51 76.69 138.345 75.1006 138.345 71.9627C138.345 68.3346 141.494 66.3404 144.643 65.5234L145.258 66.9903L145.254 66.994Z" fill="white"/>
  </g>
</svg>
