<svg width="25" height="24" viewBox="0 0 25 24" fill="none" xmlns="http://www.w3.org/2000/svg">
<path d="M14.2976 19.4952C13.8834 19.4952 13.5476 19.831 13.5476 20.2452C13.5476 20.6595 13.8834 20.9952 14.2976 20.9952V19.4952ZM5.85194 19.4563C6.14483 19.7492 6.61971 19.7492 6.9126 19.4563L11.6856 14.6834C11.9785 14.3905 11.9785 13.9156 11.6856 13.6227C11.3927 13.3298 10.9178 13.3298 10.6249 13.6227L6.38227 17.8654L2.13963 13.6227C1.84674 13.3298 1.37186 13.3298 1.07897 13.6227C0.786077 13.9156 0.786077 14.3905 1.07897 14.6834L5.85194 19.4563ZM14.2976 20.2452V20.9952C19.369 20.9952 22.963 16.6608 22.963 12.3299H22.213H21.463C21.463 15.9143 18.4609 19.4952 14.2976 19.4952V20.2452ZM22.213 12.3299H22.963C22.963 10.2425 22.4436 7.92435 21.0815 6.10824C19.695 4.25958 17.4882 3.00488 14.2976 3.00488V3.75488V4.50488C17.0436 4.50488 18.7945 5.55884 19.8815 7.00824C20.993 8.49021 21.463 10.4596 21.463 12.3299H22.213ZM14.2976 3.75488V3.00488C11.1142 3.00488 8.75978 4.25217 7.2125 6.07251C5.68138 7.87382 4.97266 10.1962 4.97266 12.3299H5.72266H6.47266C6.47266 10.5058 7.08316 8.54074 8.35541 7.04398C9.61148 5.56624 11.5446 4.50488 14.2976 4.50488V3.75488ZM5.72266 12.3299H4.97266C4.97266 14.3553 5.1419 15.716 5.31267 16.7407C5.49118 17.8117 5.63227 18.3492 5.63227 18.926H6.38227H7.13227C7.13227 18.1836 6.94356 17.4018 6.79226 16.4941C6.63322 15.5398 6.47266 14.2621 6.47266 12.3299H5.72266Z" fill="#FEFEFE"/>
</svg>
