<svg width="25" height="24" viewBox="0 0 25 24" fill="none" xmlns="http://www.w3.org/2000/svg">
<path d="M19.6822 14.98C19.3839 14.5033 19.2255 13.9524 19.2252 13.39V9.22602C19.2252 7.50822 18.5428 5.86077 17.3282 4.64609C16.1135 3.43142 14.466 2.74902 12.7482 2.74902C11.0304 2.74902 9.38296 3.43142 8.16829 4.64609C6.95362 5.86077 6.27122 7.50822 6.27122 9.22602L6.27122 13.388C6.2713 13.9511 6.11293 14.5028 5.81422 14.98L4.72622 16.72C4.63161 16.8714 4.57925 17.0453 4.57456 17.2238C4.56988 17.4022 4.61304 17.5787 4.69958 17.7348C4.78611 17.8909 4.91286 18.021 5.06666 18.1116C5.22046 18.2022 5.39572 18.25 5.57422 18.25H19.9222C20.1007 18.25 20.276 18.2022 20.4298 18.1116C20.5836 18.021 20.7103 17.8909 20.7969 17.7348C20.8834 17.5787 20.9266 17.4022 20.9219 17.2238C20.9172 17.0453 20.8648 16.8714 20.7702 16.72L19.6822 14.98Z" stroke="#FEFEFE" stroke-width="1.5" stroke-linecap="round" stroke-linejoin="round"/>
<path d="M10.75 21.25H14.75" stroke="#FEFEFE" stroke-width="1.5" stroke-linecap="round"/>
</svg>
