<svg width="25" height="24" viewBox="0 0 25 24" fill="none" xmlns="http://www.w3.org/2000/svg">
<path d="M19.6963 14.8457C19.4043 14.382 19.2493 13.8459 19.249 13.2988V9.24756C19.249 7.57627 18.5812 5.97343 17.3923 4.79165C16.2035 3.60987 14.5912 2.94595 12.9099 2.94595C11.2287 2.94595 9.61629 3.60987 8.42748 4.79165C7.23866 5.97343 6.57079 7.57627 6.57079 9.24756V13.2969C6.57087 13.8446 6.41587 14.3814 6.12352 14.8457L5.05868 16.5386C4.96609 16.6859 4.91483 16.8551 4.91025 17.0287C4.90566 17.2023 4.94791 17.374 5.0326 17.5259C5.11729 17.6778 5.24134 17.8044 5.39187 17.8926C5.5424 17.9807 5.71392 18.0272 5.88863 18.0272H19.9312C20.1059 18.0272 20.2774 17.9807 20.428 17.8926C20.5785 17.8044 20.7025 17.6778 20.7872 17.5259C20.8719 17.374 20.9142 17.2023 20.9096 17.0287C20.905 16.8551 20.8537 16.6859 20.7611 16.5386L19.6963 14.8457Z" stroke="#FEFEFE" stroke-width="1.46807" stroke-linecap="round" stroke-linejoin="round"/>
<path d="M10.9541 20.9459H14.869" stroke="#FEFEFE" stroke-width="1.46807" stroke-linecap="round"/>
<circle cx="20.9116" cy="3" r="2" fill="#FF9496"/>
</svg>