<svg width="24" height="24" viewBox="0 0 24 24" fill="none" xmlns="http://www.w3.org/2000/svg">
<path d="M11.706 12.0622C13.6805 12.0622 15.2812 10.4615 15.2812 8.48701C15.2812 6.51251 13.6805 4.91187 11.706 4.91187C9.73151 4.91187 8.13086 6.51251 8.13086 8.48701C8.13086 10.4615 9.73151 12.0622 11.706 12.0622Z" stroke="#FEFEFE" stroke-width="1.5" stroke-linecap="round" stroke-linejoin="round"/>
<path d="M19.0518 19.9004L21.38 22.2287" stroke="#FEFEFE" stroke-width="1.5" stroke-linecap="round" stroke-linejoin="round"/>
<path d="M19.8876 17.3935C19.8876 15.5476 18.3912 14.0513 16.5454 14.0513C14.6995 14.0513 13.2031 15.5476 13.2031 17.3935C13.2031 19.2394 14.6995 20.7358 16.5454 20.7358C18.3912 20.7358 19.8876 19.2394 19.8876 17.3935Z" stroke="#FEFEFE" stroke-width="1.5" stroke-linecap="round" stroke-linejoin="round"/>
<path d="M10.7734 14.8916C11.1516 14.93 11.4473 15.2494 11.4473 15.6377C11.447 16.0259 11.1515 16.3454 10.7734 16.3838L10.6973 16.3877H8.13086C7.38158 16.3877 6.66263 16.685 6.13281 17.2148C5.60313 17.7446 5.30566 18.4637 5.30566 19.2129V21C5.30543 21.414 4.96974 21.75 4.55566 21.75C4.14159 21.75 3.80589 21.414 3.80566 21V19.2129C3.80566 18.0659 4.26128 16.9654 5.07227 16.1543C5.88339 15.3432 6.98376 14.8877 8.13086 14.8877L10.6973 14.8877L10.7734 14.8916Z" fill="#FEFEFE"/>
</svg>
