<?xml version="1.0" encoding="UTF-8"?>
<svg id="_레이어_2" data-name="레이어 2" xmlns="http://www.w3.org/2000/svg" viewBox="0 0 821.05 206">
  <defs>
    <style>
      .cls-1 {
        fill: #fff;
      }

      .cls-2 {
        fill: #6868ff;
      }
    </style>
  </defs>
  <g id="_레이어_1-2" data-name="레이어 1">
    <g>
      <path class="cls-2" d="M173.39,63.81c-11.62,0-18.35,5.77-18.35,19.01,0,28.17,13.76,67.54,17.74,120.83H45.87c3.98-56,17.74-91.64,17.74-120.83,0-13.24-5.81-19.01-17.74-19.01s-29.05,4.41-42.81,10.18L0,0h218.65l-3.06,73.99c-12.23-5.77-29.66-10.18-42.2-10.18Z"/>
      <path class="cls-2" d="M233.31,0h108.56c-4.28,22.4-6.42,39.71-6.42,48.54,0,16.63,5.81,27.15,14.68,27.15s14.98-10.52,14.98-27.15c0-8.82-2.14-26.13-6.42-48.54h108.56c-9.17,57.7-9.17,125.58,0,203.65h-108.56c4.59-32.24,6.73-56,6.73-67.88,0-16.63-6.12-27.15-15.29-27.15s-14.98,10.52-14.98,27.15c0,11.88,2.75,35.64,6.73,67.88h-108.56c9.18-78.07,9.18-145.95,0-203.65Z"/>
      <path class="cls-2" d="M698.79,123.89c0,38.69,1.78,37.68,6.97,79.76h-108.56c9.18-78.07,9.18-145.95,0-203.65h135.78c62.08,0,88.07,28.17,88.07,80.1,0,37.05-26.17,65.63-61.77,65.87-28.13.19-53.98-8.68-60.49-22.08"/>
      <ellipse class="cls-1" cx="532.23" cy="177.07" rx="51.26" ry="28.93"/>
      <path class="cls-1" d="M481.71,149.16c12.43-8.88,30.45-14.47,50.51-14.47s38.09,5.59,50.51,14.47c-3.71-49.69-2.99-99.54,2.24-149.16h-105.5c5.23,49.61,5.94,99.47,2.24,149.16Z"/>
      <path class="cls-1" d="M749.66,52.59c-15.83,6-22.07,13.67-22.07,20.63,0,8.87,8.63,11.99,18.71,14.15,1.2.48,3.6,2.88,3.6,8.15,0,6.72-5.52,14.15-16.07,14.15-11.99,0-24.7-9.35-24.7-27.82,0-21.35,18.47-33.1,36.94-37.9l3.6,8.63ZM794.65,52.59c-15.83,6-22.07,13.67-22.07,20.63,0,8.87,8.63,11.99,18.71,14.15,1.2.48,3.6,2.88,3.6,8.15,0,6.72-5.52,14.15-16.07,14.15-11.99,0-24.7-9.35-24.7-27.82,0-21.35,18.47-33.1,36.94-37.9l3.6,8.63Z"/>
    </g>
  </g>
</svg>