<svg width="24" height="24" viewBox="0 0 24 24" fill="none" xmlns="http://www.w3.org/2000/svg">
<path d="M4 6.01768C4 4.81751 4 4.21743 4.29717 3.75879C4.55855 3.35555 4.97561 3.0277 5.48858 2.82223C6.07201 2.58862 6.83539 2.58862 8.36213 2.58862H15.9959C17.5226 2.58862 18.286 2.58862 18.8694 2.82223C19.3824 3.0277 19.7995 3.35555 20.0608 3.75879C20.358 4.21743 20.358 4.81751 20.358 6.01768V20.2751C20.358 20.7959 20.358 21.0562 20.2203 21.1988C20.1608 21.2608 20.0849 21.3118 19.9978 21.3485C19.9107 21.3851 19.8146 21.4064 19.7159 21.4109C19.4883 21.4217 19.2129 21.277 18.6622 20.9887L12.179 17.5908L5.69578 20.9877C5.14506 21.277 4.8697 21.4217 4.64069 21.4109C4.54232 21.4063 4.44641 21.3849 4.35957 21.3482C4.27273 21.3116 4.19702 21.2606 4.13768 21.1988C4 21.0562 4 20.7959 4 20.2751V6.01768Z" fill="#6868FF"/>
</svg>
