<svg width="32" height="42" viewBox="0 0 32 42" fill="none" xmlns="http://www.w3.org/2000/svg">
<path d="M0 42.0001C0 42.0001 2.97917 32.8589 1.56109 25.5174C0.755759 21.348 2.03654 16.6715 4.12329 14.4513C6.32511 12.1082 8.31182 10.867 10.3839 10.5463C14.0973 9.97078 15.6648 10.0921 20 11.3334C23.5556 13.1111 25.9708 15.1481 27.1111 17.1111C28.2876 19.1353 27.9133 24.036 27.1111 27.3334C26.2222 29.5556 23.5556 36.2223 28.8889 32.2223C30.5917 30.9451 29.9493 34.2502 29.3333 35.3334C27.5556 38.8889 32.0621 40.5647 31.9992 42.0001H0Z" fill="#6868FF"/>
<path d="M14.3146 25.096C13.927 26.3712 12.5904 27.4034 11.0864 27.0477C10.2186 26.8426 9.72089 25.9968 9.88717 25.096C9.97233 24.8156 10.1392 24.6315 10.4196 24.5708C11.3344 24.3745 11.9833 24.1473 12.2805 23.4743C12.6368 22.3013 11.9207 21.3987 10.0262 20.5973L10.4231 19.6001C13.591 20.4401 15.066 22.6226 14.3146 25.096Z" fill="white"/>
<path d="M8.72602 25.096C8.33843 26.3712 7.00187 27.4034 5.49788 27.0477C4.63001 26.8426 4.13235 25.9968 4.29862 25.096C4.38379 24.8156 4.55064 24.6315 4.83105 24.5708C5.74584 24.3745 6.39471 24.1473 6.69192 23.4743C7.04822 22.3013 6.33214 21.3987 4.43767 20.5973L4.83452 19.6001C8.00241 20.4401 9.47744 22.6226 8.72602 25.096Z" fill="white"/>
<path d="M26.0004 30.2221L28.2227 32.4443M27.1115 26.8888C27.1115 24.4342 25.1217 22.4443 22.6671 22.4443C20.2125 22.4443 18.2227 24.4342 18.2227 26.8888C18.2227 29.3434 20.2125 31.3332 22.6671 31.3332C25.1217 31.3332 27.1115 29.3434 27.1115 26.8888Z" stroke="#FEFEFE" stroke-width="1.5" stroke-linecap="round" stroke-linejoin="round"/>
</svg>
