<svg width="24" height="24" viewBox="0 0 24 24" fill="none" xmlns="http://www.w3.org/2000/svg">
<path d="M17.2842 3.75002C19.7773 3.75018 21.8379 5.83985 21.8379 8.48146C21.8377 11.2251 20.4559 13.6154 17.9092 16.0078C16.714 17.1311 15.2858 18.2202 14.1465 19.0342C13.5791 19.4396 13.0875 19.7735 12.7383 20.0059C12.6836 20.0422 12.6314 20.0752 12.584 20.1065C12.533 20.0733 12.4772 20.038 12.418 19.999C12.0604 19.7641 11.5591 19.4267 10.9854 19.0195C9.832 18.2011 8.40894 17.1149 7.27539 16.0156C4.9826 13.7922 3.33807 11.2038 3.33789 8.48146C3.33789 5.84804 5.39929 3.75018 7.8916 3.75002C9.63057 3.75002 11.1492 4.76754 11.9189 6.28224C12.0468 6.53397 12.3055 6.69337 12.5879 6.69337C12.8702 6.69337 13.129 6.53397 13.2568 6.28224C14.0265 4.76754 15.5452 3.75002 17.2842 3.75002Z" stroke="#FEFEFE" stroke-width="1.5" stroke-linecap="round" stroke-linejoin="round"/>
</svg>
