<svg width="80" height="24" viewBox="0 0 80 24" fill="none" xmlns="http://www.w3.org/2000/svg">
<rect width="80" height="24" fill="url(#paint0_linear_8080_21219)"/>
<path d="M34.1719 19.1094C33.9805 19.1094 33.8027 19.0615 33.6387 18.9658C33.4746 18.8656 33.3447 18.7357 33.249 18.5762C33.1579 18.4121 33.1123 18.2344 33.1123 18.043C33.1123 17.8561 33.1579 17.6829 33.249 17.5234C33.3447 17.3594 33.4746 17.2318 33.6387 17.1406C33.8027 17.0449 33.9805 16.9971 34.1719 16.9971C34.3542 16.9971 34.5273 17.0449 34.6914 17.1406C34.8555 17.2318 34.9854 17.3594 35.0811 17.5234C35.1768 17.6829 35.2246 17.8561 35.2246 18.043C35.2246 18.2344 35.1768 18.4121 35.0811 18.5762C34.9854 18.7357 34.8555 18.8656 34.6914 18.9658C34.5273 19.0615 34.3542 19.1094 34.1719 19.1094ZM37.9863 19.1094C37.7949 19.1094 37.6172 19.0615 37.4531 18.9658C37.2891 18.8656 37.1592 18.7357 37.0635 18.5762C36.9723 18.4121 36.9268 18.2344 36.9268 18.043C36.9268 17.8561 36.9723 17.6829 37.0635 17.5234C37.1592 17.3594 37.2891 17.2318 37.4531 17.1406C37.6172 17.0449 37.7949 16.9971 37.9863 16.9971C38.1686 16.9971 38.3418 17.0449 38.5059 17.1406C38.6699 17.2318 38.7998 17.3594 38.8955 17.5234C38.9912 17.6829 39.0391 17.8561 39.0391 18.043C39.0391 18.2344 38.9912 18.4121 38.8955 18.5762C38.7998 18.7357 38.6699 18.8656 38.5059 18.9658C38.3418 19.0615 38.1686 19.1094 37.9863 19.1094ZM41.8008 19.1094C41.6094 19.1094 41.4316 19.0615 41.2676 18.9658C41.1035 18.8656 40.9736 18.7357 40.8779 18.5762C40.7868 18.4121 40.7412 18.2344 40.7412 18.043C40.7412 17.8561 40.7868 17.6829 40.8779 17.5234C40.9736 17.3594 41.1035 17.2318 41.2676 17.1406C41.4316 17.0449 41.6094 16.9971 41.8008 16.9971C41.9831 16.9971 42.1562 17.0449 42.3203 17.1406C42.4844 17.2318 42.6143 17.3594 42.71 17.5234C42.8057 17.6829 42.8535 17.8561 42.8535 18.043C42.8535 18.2344 42.8057 18.4121 42.71 18.5762C42.6143 18.7357 42.4844 18.8656 42.3203 18.9658C42.1562 19.0615 41.9831 19.1094 41.8008 19.1094ZM45.6973 15.9717C46.8867 15.9717 47.8802 15.9466 48.6777 15.8965C49.4753 15.8418 50.2728 15.7415 51.0703 15.5957L51.2344 16.8262C50.4095 16.9857 49.5869 17.0951 48.7666 17.1543C47.9508 17.209 46.9277 17.234 45.6973 17.2295H44.7129V15.9717H45.6973ZM50.3525 10.2227H46.2373V16.4434H44.7129V8.97852H50.3525V10.2227ZM54.4814 20.2373H52.9639V7.85742H54.4814V20.2373ZM53.6064 13.4492H49.7031V12.2051H53.6064V13.4492ZM67.5107 18.7266H56.2178V17.4824H67.5107V18.7266ZM62.582 17.8105H61.085V14.707H62.582V17.8105ZM58.9795 10.7012H64.7012V8.67773H66.2119V15.0693H57.4551V8.67773H58.9795V10.7012ZM64.7012 13.8525V11.9111H58.9795V13.8525H64.7012ZM78.6328 20.2031H77.0947V7.85742H78.6328V20.2031ZM74.9482 9.16992C74.9482 10.4596 74.7614 11.6423 74.3877 12.7178C74.0186 13.7887 73.4102 14.7754 72.5625 15.6777C71.7148 16.5755 70.5915 17.3571 69.1924 18.0225L68.3857 16.8057C69.5752 16.2406 70.5413 15.598 71.2842 14.8779C72.027 14.1579 72.5716 13.349 72.918 12.4512C73.2643 11.5534 73.4375 10.5462 73.4375 9.42969V9.16992H74.9482ZM74.1211 10.373H69.0146V9.16992H74.1211V10.373Z" fill="#888888"/>
<defs>
<linearGradient id="paint0_linear_8080_21219" x1="5.61768" y1="12" x2="36.1177" y2="12" gradientUnits="userSpaceOnUse">
<stop stop-color="#121212" stop-opacity="0"/>
<stop offset="1" stop-color="#121212"/>
</linearGradient>
</defs>
</svg>
