<svg width="20" height="20" viewBox="0 0 20 20" fill="none" xmlns="http://www.w3.org/2000/svg">
<circle cx="7.50033" cy="6.25008" r="2.83333" stroke="#FEFEFE"/>
<path d="M7.5 11.3333C9.34262 11.3333 10.541 11.7567 11.3203 12.4006C12.097 13.0424 12.5255 13.9597 12.7148 15.0891C12.8054 15.6308 12.3443 16.1662 11.668 16.1663H3.33301C2.65655 16.1663 2.19551 15.6308 2.28613 15.0891C2.47542 13.9598 2.90324 13.0424 3.67969 12.4006C4.45896 11.7567 5.65751 11.3333 7.5 11.3333Z" stroke="#FEFEFE"/>
<path d="M14.9554 15.8333H15.2648C15.7206 15.8333 16.4752 15.8333 17.0831 15.8333C17.5433 15.8333 17.9243 15.4564 17.865 15C17.4271 11.6343 14.3182 11.6343 13.4971 11.6343M12.083 4.81135C12.2264 4.78109 12.3752 4.76514 12.528 4.76514C13.6769 4.76514 14.6083 5.66752 14.6083 6.78065C14.6083 7.89378 13.6769 8.79615 12.528 8.79615C12.3752 8.79615 12.2264 8.78023 12.083 8.74993" stroke="#FEFEFE" stroke-linecap="round"/>
</svg>
