<svg width="24" height="24" viewBox="0 0 24 24" fill="none" xmlns="http://www.w3.org/2000/svg">
<path d="M11.6617 10.3234C13.684 10.3234 15.3234 8.68397 15.3234 6.66168C15.3234 4.63939 13.684 3 11.6617 3C9.63939 3 8 4.63939 8 6.66168C8 8.68397 9.63939 10.3234 11.6617 10.3234Z" stroke="#FEFEFE" stroke-width="1.5" stroke-linecap="round" stroke-linejoin="round"/>
<path d="M19.208 18.3512L21.5926 20.7358" stroke="#FEFEFE" stroke-width="1.5" stroke-linecap="round" stroke-linejoin="round"/>
<path d="M20.0636 15.7839C20.0636 13.8934 18.531 12.3608 16.6404 12.3608C14.7499 12.3608 13.2173 13.8934 13.2173 15.7839C13.2173 17.6745 14.7499 19.2071 16.6404 19.2071C18.531 19.2071 20.0636 17.6745 20.0636 15.7839Z" stroke="#FEFEFE" stroke-width="1.5" stroke-linecap="round" stroke-linejoin="round"/>
<path d="M10.6514 13.2163C11.0753 13.2167 11.4189 13.5609 11.4189 13.9849C11.4189 14.4089 11.0753 14.7531 10.6514 14.7534L8.02344 14.7534C7.25616 14.7534 6.51918 15.0576 5.97656 15.6001C5.43395 16.1427 5.12992 16.8796 5.12988 17.647V19.4771C5.12988 19.9011 4.78536 20.2454 4.36133 20.2456C3.93709 20.2456 3.59277 19.9013 3.59277 19.4771V17.647C3.59281 16.4722 4.0599 15.3449 4.89062 14.5142C5.72135 13.6836 6.84871 13.2163 8.02344 13.2163L10.6514 13.2163Z" fill="#FEFEFE"/>
</svg>