<svg width="24" height="24" viewBox="0 0 24 24" fill="none" xmlns="http://www.w3.org/2000/svg">
<path d="M16.6667 10.3931H7.33333C6.59695 10.3931 6 11.1257 6 12.0294V17.7567C6 18.6604 6.59695 19.3931 7.33333 19.3931H16.6667C17.403 19.3931 18 18.6604 18 17.7567V12.0294C18 11.1257 17.403 10.3931 16.6667 10.3931Z" stroke="#FEFEFE" stroke-width="1.5" stroke-linecap="round" stroke-linejoin="round"/>
<path d="M15 10V7.77778C15 7.04107 14.6839 6.33453 14.1213 5.81359C13.5587 5.29266 12.7956 5 12 5C11.2044 5 10.4413 5.29266 9.87868 5.81359C9.31607 6.33453 9 7.04107 9 7.77778V10" stroke="#FEFEFE" stroke-width="1.5" stroke-linecap="round" stroke-linejoin="round"/>
</svg>
