<svg width="24" height="24" viewBox="0 0 24 24" fill="none" xmlns="http://www.w3.org/2000/svg">
<path d="M8.3623 3.33862H15.9961C16.7691 3.33862 17.3134 3.33868 17.7383 3.36597C18.1585 3.39296 18.4053 3.44401 18.5908 3.51831C18.9822 3.67512 19.2667 3.91233 19.4316 4.16675C19.4915 4.25925 19.5447 4.39389 19.5752 4.68726C19.6074 4.99686 19.6084 5.40175 19.6084 6.01733V20.2751C19.6084 20.4077 19.6084 20.5132 19.6064 20.6033C19.6063 20.6096 19.6046 20.6158 19.6045 20.6218L19.3652 20.5085C19.2691 20.4599 19.154 20.399 19.0107 20.324L12.5273 16.9265C12.3364 16.8264 12.113 16.8142 11.9141 16.8894L11.8311 16.9265L5.34766 20.323L5.34668 20.324C5.06024 20.4745 4.8839 20.5655 4.75195 20.6218C4.7518 20.6158 4.75209 20.6096 4.75195 20.6033C4.75001 20.5132 4.75 20.4077 4.75 20.2751V6.01733C4.75 5.40175 4.75102 4.99686 4.7832 4.68726C4.81375 4.39373 4.86682 4.25925 4.92676 4.16675C5.0917 3.91233 5.37615 3.6751 5.76758 3.51831C5.95311 3.44407 6.20008 3.39295 6.62012 3.36597C7.04503 3.3387 7.58946 3.33862 8.3623 3.33862Z" stroke="#FEFEFE" stroke-width="1.5" stroke-linecap="round" stroke-linejoin="round"/>
</svg>
