<svg width="20" height="21" viewBox="0 0 20 21" fill="none" xmlns="http://www.w3.org/2000/svg">
<circle cx="7.49935" cy="6.75033" r="2.83333" stroke="#FEFEFE"/>
<path d="M7.49902 11.833C9.34164 11.833 10.54 12.2565 11.3193 12.9004C12.096 13.5422 12.5246 14.4594 12.7139 15.5889C12.8044 16.1305 12.3433 16.6659 11.667 16.666H3.33203C2.65557 16.666 2.19454 16.1306 2.28516 15.5889C2.47444 14.4596 2.90226 13.5421 3.67871 12.9004C4.45798 12.2565 5.65654 11.8331 7.49902 11.833Z" stroke="#FEFEFE"/>
<path d="M14.9563 16.3338H15.2658C15.7216 16.3338 16.4762 16.3338 17.0841 16.3338C17.5443 16.3338 17.9253 15.9569 17.866 15.5005C17.4281 12.1348 14.3191 12.1348 13.4981 12.1348M12.084 5.31183C12.2274 5.28157 12.3762 5.26563 12.5289 5.26563C13.6779 5.26563 14.6092 6.16801 14.6092 7.28114C14.6092 8.39427 13.6779 9.29664 12.5289 9.29664C12.3762 9.29664 12.2274 9.28072 12.084 9.25042" stroke="#FEFEFE" stroke-linecap="round"/>
</svg>
