<svg width="44" height="44" viewBox="0 0 44 44" fill="none" xmlns="http://www.w3.org/2000/svg">
<path d="M12 0.5H32C38.3513 0.5 43.5 5.64873 43.5 12V32C43.5 38.3513 38.3513 43.5 32 43.5H12C5.64873 43.5 0.5 38.3513 0.5 32V12C0.5 5.64873 5.64873 0.5 12 0.5Z" stroke="#ADADAD"/>
<path d="M14 16.0169C14 14.8168 14 14.2167 14.2972 13.7581C14.5585 13.3548 14.9756 13.027 15.4886 12.8215C16.072 12.5879 16.8354 12.5879 18.3621 12.5879H25.9959C27.5226 12.5879 28.286 12.5879 28.8694 12.8215C29.3824 13.027 29.7995 13.3548 30.0608 13.7581C30.358 14.2167 30.358 14.8168 30.358 16.0169V30.2743C30.358 30.7951 30.358 31.0555 30.2203 31.198C30.1608 31.26 30.0849 31.3111 29.9978 31.3477C29.9107 31.3844 29.8146 31.4057 29.7159 31.4102C29.4883 31.4209 29.2129 31.2763 28.6622 30.988L22.179 27.59L15.6958 30.9869C15.1451 31.2763 14.8697 31.4209 14.6407 31.4102C14.5423 31.4055 14.4464 31.3841 14.3596 31.3475C14.2727 31.3109 14.197 31.2599 14.1377 31.198C14 31.0555 14 30.7951 14 30.2743V16.0169Z" fill="#6868FF"/>
</svg>
