<svg width="44" height="44" viewBox="0 0 44 44" fill="none" xmlns="http://www.w3.org/2000/svg">
<path d="M0 12C0 5.37258 5.37258 0 12 0H32C38.6274 0 44 5.37258 44 12V32C44 38.6274 38.6274 44 32 44H12C5.37258 44 0 38.6274 0 32V12Z" fill="#FEFEFE"/>
<path d="M13.9999 16.0176C13.9999 14.8175 13.9999 14.2174 14.297 13.7587C14.5584 13.3555 14.9755 13.0276 15.4885 12.8222C16.0719 12.5886 16.8353 12.5886 18.362 12.5886H25.9957C27.5225 12.5886 28.2859 12.5886 28.8693 12.8222C29.3823 13.0276 29.7993 13.3555 30.0607 13.7587C30.3579 14.2174 30.3579 14.8175 30.3579 16.0176V30.275C30.3579 30.7958 30.3579 31.0562 30.2202 31.1987C30.1607 31.2607 30.0848 31.3118 29.9977 31.3484C29.9106 31.385 29.8144 31.4064 29.7158 31.4109C29.4882 31.4216 29.2128 31.2769 28.6621 30.9887L22.1789 27.5907L15.6957 30.9876C15.1449 31.2769 14.8696 31.4216 14.6406 31.4109C14.5422 31.4062 14.4463 31.3848 14.3594 31.3482C14.2726 31.3116 14.1969 31.2606 14.1376 31.1987C13.9999 31.0562 13.9999 30.7958 13.9999 30.275V16.0176Z" fill="#888888"/>
</svg>
