<svg width="24" height="25" viewBox="0 0 24 25" fill="none" xmlns="http://www.w3.org/2000/svg">
<path d="M21.6719 13.2061C22.2242 13.2061 22.6719 12.7583 22.6719 12.2061C22.6719 11.6538 22.2242 11.2061 21.6719 11.2061C21.1196 11.2061 20.6719 11.6538 20.6719 12.2061C20.6719 12.7583 21.1196 13.2061 21.6719 13.2061Z" stroke="#FEFEFE" stroke-width="2" stroke-linecap="round" stroke-linejoin="round"/>
<path d="M21.6719 5.5C22.2242 5.5 22.6719 5.05228 22.6719 4.5C22.6719 3.94772 22.2242 3.5 21.6719 3.5C21.1196 3.5 20.6719 3.94772 20.6719 4.5C20.6719 5.05228 21.1196 5.5 21.6719 5.5Z" stroke="#FEFEFE" stroke-width="2" stroke-linecap="round" stroke-linejoin="round"/>
<path d="M21.6719 21.5C22.2242 21.5 22.6719 21.0523 22.6719 20.5C22.6719 19.9477 22.2242 19.5 21.6719 19.5C21.1196 19.5 20.6719 19.9477 20.6719 20.5C20.6719 21.0523 21.1196 21.5 21.6719 21.5Z" stroke="#FEFEFE" stroke-width="2" stroke-linecap="round" stroke-linejoin="round"/>
</svg>
