<svg width="21" height="20" viewBox="0 0 21 20" fill="none" xmlns="http://www.w3.org/2000/svg">
<circle cx="7.75033" cy="6.24984" r="2.83333" stroke="#888888"/>
<path d="M7.75 11.3335C9.59262 11.3335 10.791 11.7569 11.5703 12.4009C12.347 13.0426 12.7755 13.9599 12.9648 15.0894C13.0554 15.631 12.5943 16.1664 11.918 16.1665H3.58301C2.90655 16.1665 2.44551 15.6311 2.53613 15.0894C2.72542 13.9601 3.15324 13.0426 3.92969 12.4009C4.70896 11.757 5.90751 11.3335 7.75 11.3335Z" stroke="#888888"/>
<path d="M15.2054 15.8333H15.5148C15.9706 15.8333 16.7252 15.8333 17.3331 15.8333C17.7933 15.8333 18.1743 15.4564 18.115 15C17.6771 11.6343 14.5682 11.6343 13.7471 11.6343M12.333 4.81135C12.4764 4.78109 12.6252 4.76514 12.778 4.76514C13.9269 4.76514 14.8583 5.66752 14.8583 6.78065C14.8583 7.89378 13.9269 8.79615 12.778 8.79615C12.6252 8.79615 12.4764 8.78023 12.333 8.74993" stroke="#888888" stroke-linecap="round"/>
</svg>
