<svg width="25" height="24" viewBox="0 0 25 24" fill="none" xmlns="http://www.w3.org/2000/svg">
<path d="M8.43457 3.33789H16.0684C16.8413 3.33789 17.3856 3.33794 17.8105 3.36523C18.2308 3.39223 18.4775 3.44328 18.6631 3.51758C19.0545 3.67438 19.339 3.9116 19.5039 4.16602C19.5638 4.25852 19.6169 4.39316 19.6475 4.68652C19.6796 4.99613 19.6807 5.40102 19.6807 6.0166V20.2744C19.6807 20.407 19.6807 20.5124 19.6787 20.6025C19.6786 20.6089 19.6769 20.6151 19.6768 20.6211L19.4375 20.5078C19.3414 20.4592 19.2263 20.3982 19.083 20.3232L12.5996 16.9258C12.4087 16.8257 12.1853 16.8135 11.9863 16.8887L11.9033 16.9258L5.41992 20.3223L5.41895 20.3232C5.13251 20.4737 4.95617 20.5648 4.82422 20.6211C4.82407 20.6151 4.82436 20.6089 4.82422 20.6025C4.82228 20.5124 4.82227 20.407 4.82227 20.2744V6.0166C4.82227 5.40102 4.82329 4.99613 4.85547 4.68652C4.88602 4.393 4.93909 4.25852 4.99902 4.16602C5.16397 3.91159 5.44841 3.67437 5.83984 3.51758C6.02537 3.44334 6.27234 3.39221 6.69238 3.36523C7.11729 3.33797 7.66172 3.33789 8.43457 3.33789Z" stroke="#FEFEFE" stroke-width="1.5" stroke-linecap="round" stroke-linejoin="round"/>
</svg>
