<svg width="44" height="44" viewBox="0 0 44 44" fill="none" xmlns="http://www.w3.org/2000/svg">
<path d="M12 0.5H32C38.3513 0.5 43.5 5.64873 43.5 12V32C43.5 38.3513 38.3513 43.5 32 43.5H12C5.64873 43.5 0.5 38.3513 0.5 32V12C0.5 5.64873 5.64873 0.5 12 0.5Z" stroke="#ADADAD"/>
<path d="M18.3622 13.3386H25.996C26.7689 13.3386 27.3132 13.3386 27.7382 13.3659C28.1584 13.3929 28.4051 13.444 28.5907 13.5182C28.9821 13.6751 29.2666 13.9123 29.4315 14.1667C29.4914 14.2592 29.5445 14.3938 29.5751 14.6872C29.6073 14.9968 29.6083 15.4017 29.6083 16.0173V30.2751C29.6083 30.4076 29.6083 30.5131 29.6063 30.6032C29.6062 30.6096 29.6045 30.6157 29.6044 30.6218L29.3651 30.5085C29.269 30.4599 29.1539 30.3989 29.0106 30.3239L22.5272 26.9265C22.3363 26.8264 22.1129 26.8142 21.9139 26.8893L21.8309 26.9265L15.3475 30.3229L15.3466 30.3239C15.0601 30.4744 14.8838 30.5654 14.7518 30.6218C14.7517 30.6157 14.752 30.6095 14.7518 30.6032C14.7499 30.5131 14.7499 30.4076 14.7499 30.2751V16.0173C14.7499 15.4017 14.7509 14.9968 14.7831 14.6872C14.8136 14.3937 14.8667 14.2592 14.9266 14.1667C15.0916 13.9123 15.376 13.675 15.7675 13.5182C15.953 13.444 16.2 13.3929 16.62 13.3659C17.0449 13.3386 17.5893 13.3386 18.3622 13.3386Z" stroke="#FEFEFE" stroke-width="1.5" stroke-linecap="round" stroke-linejoin="round"/>
</svg>
