<svg width="32" height="43" viewBox="0 0 32 43" fill="none" xmlns="http://www.w3.org/2000/svg">
<path d="M0 47.2679C0 47.2679 2.97905 32.1267 1.56098 24.7852C0.755644 20.6158 2.03642 15.9393 4.12317 13.7191C6.32498 11.376 8.31169 10.1348 10.3838 9.81408C14.0971 9.2386 15.6646 9.35994 19.9998 10.6012C23.5554 12.379 25.9706 14.4159 27.1109 16.379C28.2875 18.4031 27.9131 23.3038 27.1109 26.6012C26.2221 28.8234 23.5554 35.4901 28.8887 31.4901C30.5916 30.2129 29.9491 33.518 29.3332 34.6012C27.5554 38.1567 32.0621 45.8326 31.9992 47.2679H0Z" fill="#6868FF"/>
<path d="M14.3144 24.3638C13.9268 25.639 12.5903 26.6713 11.0863 26.3155C10.2184 26.1105 9.72076 25.2646 9.88703 24.3638C9.9722 24.0834 10.1391 23.8994 10.4195 23.8386C11.3342 23.6423 11.9831 23.4151 12.2803 22.7421C12.6366 21.5691 11.9206 20.6666 10.0261 19.8651L10.4229 18.8679C13.5908 19.7079 15.0658 21.8904 14.3144 24.3638Z" fill="white"/>
<path d="M8.72589 24.3638C8.3383 25.639 7.00175 26.6713 5.49776 26.3155C4.62989 26.1105 4.13223 25.2646 4.2985 24.3638C4.38367 24.0834 4.55052 23.8994 4.83093 23.8386C5.74572 23.6423 6.39459 23.4151 6.6918 22.7421C7.0481 21.5691 6.33202 20.6666 4.43755 19.8651L4.8344 18.8679C8.00228 19.7079 9.47731 21.8904 8.72589 24.3638Z" fill="white"/>
<path d="M25.9999 29.4902L28.2222 31.7124M27.1111 26.1568C27.1111 23.7022 25.1212 21.7124 22.6666 21.7124C20.212 21.7124 18.2222 23.7022 18.2222 26.1568C18.2222 28.6115 20.212 30.6013 22.6666 30.6013C25.1212 30.6013 27.1111 28.6115 27.1111 26.1568Z" stroke="#FEFEFE" stroke-width="1.5" stroke-linecap="round" stroke-linejoin="round"/>
</svg>
