<svg width="24" height="24" viewBox="0 0 24 24" fill="none" xmlns="http://www.w3.org/2000/svg">
<path d="M10.9447 14.2621C10.7801 14.1192 10.5883 14.0112 10.3808 13.9445L3.81761 11.8297C3.73925 11.8044 3.67049 11.7558 3.62056 11.6903C3.57064 11.6248 3.54194 11.5457 3.53831 11.4634C3.53468 11.3811 3.55631 11.2997 3.60028 11.2301C3.64425 11.1605 3.70846 11.106 3.7843 11.0739L18.7163 4.77331C18.7858 4.74257 18.8627 4.73226 18.9379 4.74361C19.0131 4.75495 19.0835 4.78747 19.1408 4.83736C19.1982 4.88725 19.2402 4.95245 19.2619 5.02533C19.2835 5.09821 19.284 5.17575 19.2632 5.24889L15.0974 20.9112C15.0762 20.9908 15.0311 21.0619 14.9683 21.1151C14.9054 21.1684 14.8278 21.2011 14.7459 21.2089C14.6639 21.2167 14.5815 21.1993 14.5097 21.159C14.438 21.1186 14.3802 21.0573 14.3443 20.9832L11.3385 14.7757C11.2432 14.5796 11.1093 14.4049 10.9447 14.2621ZM10.9447 14.2621L19.1385 4.84094" stroke="#FEFEFE" stroke-width="1.5" stroke-linecap="round" stroke-linejoin="round"/>
</svg>
