<svg width="534" height="581" viewBox="0 0 534 581" fill="none" xmlns="http://www.w3.org/2000/svg">
<g clip-path="url(#clip0_2573_83146)">
<path d="M8.55176 580.013C8.55176 580.013 54.6718 394.113 59.3618 272.163C62.6718 186.083 71.8118 166.543 101.702 112.883C126.982 67.4931 163.062 13.2631 205.622 16.8831C267.272 22.1331 285.542 -10.0569 354.152 3.75317C378.582 8.67317 408.832 44.1532 452.412 74.3932C510.832 114.923 504.64 214.2 504.64 283.524C504.64 407.828 536.052 521.323 533.602 580.023H8.55176V580.013Z" fill="#A1D5FF"/>
<path d="M450.533 217.204C443.843 195.374 420.773 177.704 394.813 183.794C379.833 187.304 371.243 201.784 374.113 217.204C375.583 222.004 378.463 225.154 383.303 226.194C399.093 229.554 410.293 233.444 415.423 244.964C421.573 265.044 409.213 280.494 376.513 294.214L383.363 311.284C438.043 296.904 463.503 259.554 450.533 217.214V217.204Z" fill="white"/>
<path d="M354.072 217.204C347.382 195.374 324.312 177.704 298.352 183.794C283.372 187.304 274.782 201.784 277.652 217.204C279.122 222.004 282.002 225.154 286.842 226.194C302.632 229.554 313.832 233.444 318.962 244.964C325.112 265.044 312.752 280.494 280.052 294.214L286.902 311.284C341.582 296.904 367.042 259.554 354.072 217.214V217.204Z" fill="white"/>
<path d="M132.059 146.433C132.059 146.433 154.842 101.006 256.497 91.585" stroke="white" stroke-width="13" stroke-linecap="round" stroke-linejoin="round"/>
<path d="M463.782 163.081C463.782 163.081 431.191 116.433 374.254 107.418" stroke="white" stroke-width="13" stroke-linecap="round" stroke-linejoin="round"/>
<path d="M239.009 92.9276C238.737 93.0873 238.548 93.3624 238.545 93.6786C238.501 97.2453 240.041 119.252 284.693 119.76C285.419 119.768 285.939 119.048 285.613 118.399C281.987 111.177 263.809 78.4149 239.009 92.9276Z" fill="white"/>
<path d="M391.03 112.533C391.262 112.748 391.385 113.057 391.32 113.367C390.588 116.857 384.298 138.003 340.605 128.788C339.894 128.638 339.543 127.821 340.003 127.259C345.113 120.999 369.981 92.9737 391.03 112.533Z" fill="white"/>
<path d="M193.208 103.768C192.925 103.909 192.719 104.171 192.693 104.486C192.408 108.042 192.451 130.106 236.964 133.637C237.688 133.694 238.256 133.011 237.975 132.341C234.848 124.891 218.937 90.9678 193.208 103.768Z" fill="white"/>
<path d="M433.377 133.075C433.623 133.274 433.767 133.574 433.723 133.887C433.229 137.42 428.388 158.946 384.172 152.712C383.453 152.611 383.048 151.82 383.468 151.228C388.14 144.635 411.048 114.985 433.377 133.075Z" fill="white"/>
<path d="M209.426 98.5611C209.581 98.837 209.852 99.0302 210.168 99.04C213.734 99.1512 235.767 98.0262 237.119 53.3904C237.141 52.6644 236.43 52.1312 235.775 52.4448C228.486 55.934 195.383 73.4915 209.426 98.5611Z" fill="white"/>
<path d="M418.681 124.465C418.47 124.7 418.163 124.83 417.853 124.771C414.348 124.104 393.087 118.214 401.475 74.353C401.611 73.6396 402.421 73.2737 402.992 73.7223C409.348 78.7132 437.841 103.049 418.681 124.465Z" fill="white"/>
<path d="M252.33 92.3563C252.428 92.6567 252.658 92.8986 252.966 92.969C256.443 93.7637 278.282 96.8965 288.192 53.3532C288.353 52.645 287.758 51.985 287.055 52.1668C279.231 54.1893 243.37 65.0537 252.33 92.3563Z" fill="white"/>
<path d="M378.153 109.079C377.991 109.35 377.715 109.537 377.399 109.538C373.832 109.558 351.835 107.866 351.632 63.2097C351.628 62.4834 352.353 61.9686 352.999 62.299C360.196 65.9746 392.836 84.3779 378.153 109.079Z" fill="white"/>
<path d="M165.034 111.934C165.217 112.192 165.508 112.354 165.824 112.33C169.38 112.052 191.164 108.532 187.637 64.0173C187.58 63.2933 186.815 62.8409 186.198 63.2239C179.334 67.4853 148.342 88.5409 165.034 111.934Z" fill="white"/>
<path d="M251.786 364.259C86.3654 364.259 50.8368 407.788 38.4177 423.476C-11.9036 487.045 7.19586 599.249 24.4969 536.726C41.7981 474.202 446.666 385.837 454.442 370.441C462.218 355.046 417.207 364.259 251.786 364.259Z" fill="#6DB5EE"/>
</g>
<defs>
<clipPath id="clip0_2573_83146">
<rect width="533" height="581" fill="white" transform="translate(0.950195)"/>
</clipPath>
</defs>
</svg>
