<svg width="229" height="100" viewBox="0 0 229 100" fill="none" xmlns="http://www.w3.org/2000/svg">
<path d="M56.735 16.4907C53.9027 16.4907 52.2629 17.8912 52.2629 21.1061C52.2629 27.9443 55.617 37.4987 56.5859 50.4377H25.675C26.644 36.8462 29.9981 28.1936 29.9981 21.1061C29.9981 17.8912 28.5819 16.4907 25.675 16.4907C22.7681 16.4907 18.5995 17.5623 15.2454 18.9629L14.5 1H67.7609L67.0156 18.9576C64.0342 17.557 59.791 16.4854 56.735 16.4854V16.4907Z" fill="#6868FF"/>
<path d="M71.333 1H97.7771C96.7336 6.43767 96.2119 10.6393 96.2119 12.7825C96.2119 16.8196 97.6281 19.3714 99.7896 19.3714C101.951 19.3714 103.442 16.8196 103.442 12.7825C103.442 10.6393 102.92 6.43767 101.877 1H128.321C126.085 15.0053 126.085 31.4828 128.321 50.4324H101.877C102.995 42.6074 103.516 36.8408 103.516 33.9549C103.516 29.9178 102.026 27.366 99.7896 27.366C97.5535 27.366 96.1373 29.9178 96.1373 33.9549C96.1373 36.8408 96.8082 42.6074 97.7771 50.4324H71.333C73.5691 31.4828 73.5691 15.0053 71.333 1Z" fill="#6868FF"/>
<path d="M184.718 31.0684C184.718 40.4583 185.15 40.2143 186.417 50.4265H159.973C162.209 31.4769 162.209 14.9994 159.973 0.994141H193.045C208.165 0.994141 214.501 7.83233 214.501 20.4371C214.501 29.4291 208.128 36.3681 199.455 36.4265C192.603 36.4689 186.305 34.3204 184.718 31.0684Z" fill="#6868FF"/>
<path d="M144.389 50.8505C151.284 50.8505 156.874 47.7058 156.874 43.8266C156.874 39.9474 151.284 36.8027 144.389 36.8027C137.494 36.8027 131.904 39.9474 131.904 43.8266C131.904 47.7058 137.494 50.8505 144.389 50.8505Z" fill="white"/>
<path d="M132.054 37.0522C135.084 34.8983 139.471 33.5402 144.358 33.5402C149.245 33.5402 153.638 34.8983 156.662 37.0522C155.757 24.9938 155.932 12.893 157.205 0.850586H131.506C132.778 12.893 132.954 24.9938 132.049 37.0575L132.054 37.0522Z" fill="white"/>
<path d="M197.112 13.0813C193.257 14.5348 191.735 16.4022 191.735 18.0892C191.735 20.2431 193.838 21.0017 196.292 21.5216C196.585 21.6383 197.17 22.2218 197.17 23.5004C197.17 25.129 195.823 26.9327 193.257 26.9327C190.334 26.9327 187.241 24.6622 187.241 20.1794C187.241 14.9964 191.74 12.1476 196.239 10.9805L197.117 13.076L197.112 13.0813ZM208.069 13.0813C204.214 14.5348 202.691 16.4022 202.691 18.0892C202.691 20.2431 204.794 21.0017 207.249 21.5216C207.541 21.6383 208.127 22.2218 208.127 23.5004C208.127 25.129 206.78 26.9327 204.214 26.9327C201.291 26.9327 198.198 24.6622 198.198 20.1794C198.198 14.9964 202.697 12.1476 207.195 10.9805L208.074 13.076L208.069 13.0813Z" fill="white"/>
<path d="M14.9746 87.1992H13.0586V78.6738H14.9746V87.1992ZM2.91602 84.9844C3.64258 84.9961 4.28711 84.9844 4.84961 84.9492C5.41211 84.9082 6.00684 84.8262 6.63379 84.7031L6.81836 86.2676C6.23242 86.3672 5.69336 86.4375 5.20117 86.4785C4.70898 86.5137 4.10254 86.5371 3.38184 86.5488H2.91602H2.125V84.9844H2.91602ZM6.44922 81.3105H4.0498V86.0215H2.125V79.7549H6.44922V81.3105ZM8.09277 84.9932C9.03613 84.9873 9.78906 84.9668 10.3516 84.9316C10.9199 84.8906 11.5088 84.8057 12.1182 84.6768L12.2764 86.2324C11.6377 86.3672 11.0283 86.4551 10.4482 86.4961C9.86816 86.5312 9.08301 86.5547 8.09277 86.5664H7.23145V84.9932H8.09277ZM11.7051 81.3105H9.17383V85.9951H7.23145V79.7549H11.7051V81.3105ZM6.15918 89.5723H13.0234V87.876H14.957V94.3623H4.25195V87.876H6.15918V89.5723ZM13.0234 92.7891V91.1191H6.15918V92.7891H13.0234ZM20.1514 89.2646H18.165L17.9717 80.2734H20.3535L20.1514 89.2646ZM19.167 93.1406C18.9209 93.1406 18.6924 93.0791 18.4814 92.9561C18.2705 92.8271 18.1035 92.6602 17.9805 92.4551C17.8633 92.2441 17.8047 92.0156 17.8047 91.7695C17.8047 91.5293 17.8633 91.3066 17.9805 91.1016C18.1035 90.8906 18.2705 90.7266 18.4814 90.6094C18.6924 90.4863 18.9209 90.4248 19.167 90.4248C19.4072 90.4248 19.6299 90.4863 19.835 90.6094C20.0459 90.7266 20.2129 90.8906 20.3359 91.1016C20.459 91.3066 20.5205 91.5293 20.5205 91.7695C20.5205 92.0156 20.459 92.2441 20.3359 92.4551C20.2129 92.6602 20.0459 92.8271 19.835 92.9561C19.6299 93.0791 19.4072 93.1406 19.167 93.1406Z" fill="#6868FF"/>
<path d="M36.9727 94.5469H35.0391V78.6738H36.9727V94.5469ZM39.4248 86.6191H36.5332V85.0107H39.4248V86.6191ZM33.8086 82.6816H24.4482V81.1084H33.8086V82.6816ZM29.1768 83.71C29.9443 83.71 30.6299 83.8711 31.2334 84.1934C31.8428 84.5098 32.3203 84.9521 32.666 85.5205C33.0117 86.0889 33.1846 86.7334 33.1846 87.4541C33.1846 88.1689 33.0117 88.8135 32.666 89.3877C32.3203 89.9561 31.8428 90.3984 31.2334 90.7148C30.6299 91.0312 29.9443 91.1895 29.1768 91.1895C28.415 91.1895 27.7295 91.0312 27.1201 90.7148C26.5107 90.3984 26.0332 89.9561 25.6875 89.3877C25.3477 88.8135 25.1777 88.1689 25.1777 87.4541C25.1777 86.7334 25.3477 86.0889 25.6875 85.5205C26.0332 84.9521 26.5107 84.5098 27.1201 84.1934C27.7295 83.8711 28.415 83.71 29.1768 83.71ZM29.1768 85.3184C28.7725 85.3184 28.4062 85.4062 28.0781 85.582C27.7559 85.7578 27.501 86.0068 27.3135 86.3291C27.1318 86.6514 27.041 87.0264 27.041 87.4541C27.041 87.876 27.1318 88.248 27.3135 88.5703C27.501 88.8926 27.7559 89.1416 28.0781 89.3174C28.4062 89.4873 28.7725 89.5723 29.1768 89.5723C29.5928 89.5723 29.9619 89.4873 30.2842 89.3174C30.6064 89.1416 30.8584 88.8926 31.04 88.5703C31.2217 88.248 31.3125 87.876 31.3125 87.4541C31.3125 87.0264 31.2217 86.6514 31.04 86.3291C30.8584 86.0068 30.6064 85.7578 30.2842 85.582C29.9619 85.4062 29.5928 85.3184 29.1768 85.3184ZM30.1436 81.7412H28.2012V78.9023H30.1436V81.7412ZM51.8086 81.6973H41.5869V80.124H51.8086V81.6973ZM54.5596 92.5078H40.0928V90.917H54.5596V92.5078ZM47.3613 91.7344H45.4365V85.3799H47.3613V91.7344ZM53.0479 81.6621C53.0479 82.5938 53.0361 83.3848 53.0127 84.0352C52.9893 84.6797 52.9336 85.4414 52.8457 86.3203C52.7578 87.1934 52.6201 88.1426 52.4326 89.168L50.4551 88.957C50.6484 87.9961 50.792 87.0908 50.8857 86.2412C50.9795 85.3857 51.0352 84.627 51.0527 83.9648C51.0703 83.3027 51.0791 82.5352 51.0791 81.6621V80.124H53.0479V81.6621ZM61.0811 88.957C61.8076 88.957 62.4111 88.9395 62.8916 88.9043C63.3721 88.8691 63.8701 88.7959 64.3857 88.6846L64.5967 90.293C64.0576 90.3984 63.5303 90.4688 63.0146 90.5039C62.499 90.5391 61.8545 90.5566 61.0811 90.5566H60.3428V88.957H61.0811ZM64.377 81.7588H62.2588V89.6777H60.3428V80.1855H64.377V81.7588ZM66.0293 88.957C67.0312 88.957 67.8135 88.9395 68.376 88.9043C68.9443 88.8633 69.5127 88.7754 70.0811 88.6406L70.2393 90.2139C69.6416 90.3604 69.0527 90.4541 68.4727 90.4951C67.8926 90.5361 67.0781 90.5566 66.0293 90.5566H65.1768V88.957H66.0293ZM69.5273 81.7588H67.1455V89.7217H65.1768V80.1855H69.5273V81.7588ZM73.4209 94.5469H71.4697V78.6738H73.4209V94.5469ZM72.1377 85.8984H68.833V84.3164H72.1377V85.8984ZM83.6777 91.3652H81.7529V87.6035H83.6777V91.3652ZM82.7285 79.5615C83.8535 79.5615 84.8643 79.7402 85.7607 80.0977C86.6631 80.4551 87.3691 80.959 87.8789 81.6094C88.3887 82.2598 88.6436 83.0068 88.6436 83.8506C88.6436 84.7178 88.3887 85.4766 87.8789 86.127C87.3691 86.7773 86.666 87.2812 85.7695 87.6387C84.873 87.9902 83.8594 88.166 82.7285 88.166C81.5977 88.166 80.5811 87.9902 79.6787 87.6387C78.7822 87.2812 78.0791 86.7773 77.5693 86.127C77.0654 85.4766 76.8135 84.7178 76.8135 83.8506C76.8135 83.0068 77.0654 82.2598 77.5693 81.6094C78.0791 80.959 78.7822 80.4551 79.6787 80.0977C80.5811 79.7402 81.5977 79.5615 82.7285 79.5615ZM82.7285 81.1348C81.9551 81.1348 81.2637 81.2461 80.6543 81.4688C80.0449 81.6914 79.5703 82.0078 79.2305 82.418C78.8965 82.8281 78.7295 83.3057 78.7295 83.8506C78.7295 84.4131 78.8965 84.9023 79.2305 85.3184C79.5703 85.7344 80.042 86.0537 80.6455 86.2764C81.249 86.4932 81.9434 86.6045 82.7285 86.6104C83.5137 86.6045 84.2051 86.4932 84.8027 86.2764C85.4062 86.0537 85.875 85.7344 86.209 85.3184C86.5488 84.9023 86.7188 84.4131 86.7188 83.8506C86.7188 83.3057 86.5488 82.8281 86.209 82.418C85.875 82.0078 85.4062 81.6914 84.8027 81.4688C84.1992 81.2461 83.5078 81.1348 82.7285 81.1348ZM90.0146 92.6396H75.4951V91.0312H90.0146V92.6396ZM105.554 88.9131H91.0342V87.3311H105.554V88.9131ZM104.104 94.2656H92.8887V92.666H104.104V94.2656ZM94.8486 93.3252H92.8887V89.915H94.8486V93.3252ZM103.761 83.3408H94.8135V85.1689H92.8711V81.9258H101.792V80.625H92.8271V79.1045H103.761V83.3408ZM104.068 86.1709H92.8711V84.6768H104.068V86.1709ZM122.622 81.8027H112.418V80.2119H122.622V81.8027ZM125.364 92.376H110.897V90.7852H125.364V92.376ZM123.527 82.0137C123.527 82.9805 123.516 83.7979 123.492 84.4658C123.475 85.1338 123.425 85.9102 123.343 86.7949C123.267 87.6738 123.138 88.6318 122.956 89.6689L120.961 89.502C121.16 88.5293 121.304 87.6123 121.392 86.751C121.485 85.8896 121.541 85.1191 121.559 84.4395C121.576 83.7539 121.585 82.9453 121.585 82.0137V80.2119H123.527V82.0137ZM145.245 88.1924H130.726V86.6191H145.245V88.1924ZM139.11 91.0928H137.177V87.5947H139.11V91.0928ZM143.382 85.1426H132.562V79.4033H143.382V85.1426ZM134.47 83.6133H141.448V80.9238H134.47V83.6133ZM143.637 94.2656H132.475V92.666H143.637V94.2656ZM134.435 93.2021H132.475V89.6514H134.435V93.2021ZM151.617 81.5479C151.617 82.5498 151.444 83.4902 151.099 84.3691C150.753 85.2422 150.24 86.0039 149.561 86.6543C148.887 87.2988 148.069 87.7852 147.108 88.1133L146.115 86.5576C146.941 86.2822 147.647 85.8896 148.233 85.3799C148.825 84.8643 149.271 84.2783 149.569 83.6221C149.874 82.96 150.026 82.2686 150.026 81.5479V80.4229H151.617V81.5479ZM151.995 81.5391C151.995 82.1953 152.136 82.8223 152.417 83.4199C152.698 84.0117 153.117 84.5391 153.674 85.002C154.236 85.459 154.919 85.8135 155.722 86.0654L154.799 87.6035C153.861 87.3047 153.062 86.8564 152.399 86.2588C151.743 85.6611 151.245 84.958 150.905 84.1494C150.565 83.3408 150.396 82.4707 150.396 81.5391V80.4229H151.995V81.5391ZM155.291 81.3545H146.669V79.7812H155.291V81.3545ZM158.824 88.1484H156.873V78.6738H158.824V88.1484ZM161.048 84.0879H158.271V82.4795H161.048V84.0879ZM153.656 88.5C154.752 88.5 155.698 88.6172 156.495 88.8516C157.298 89.0859 157.91 89.4316 158.332 89.8887C158.76 90.3398 158.974 90.8789 158.974 91.5059C158.974 92.1328 158.76 92.6748 158.332 93.1318C157.91 93.5889 157.298 93.9375 156.495 94.1777C155.698 94.418 154.752 94.5381 153.656 94.5381C152.555 94.5381 151.6 94.418 150.791 94.1777C149.982 93.9375 149.358 93.5889 148.919 93.1318C148.485 92.6748 148.269 92.1328 148.269 91.5059C148.269 90.8789 148.485 90.3398 148.919 89.8887C149.353 89.4316 149.974 89.0859 150.782 88.8516C151.597 88.6172 152.555 88.5 153.656 88.5ZM153.656 90.0293C152.936 90.0293 152.317 90.085 151.802 90.1963C151.292 90.3018 150.902 90.4658 150.633 90.6885C150.369 90.9111 150.237 91.1836 150.237 91.5059C150.237 91.8223 150.369 92.0947 150.633 92.3232C150.902 92.5518 151.292 92.7246 151.802 92.8418C152.312 92.9531 152.93 93.0088 153.656 93.0088C154.389 93.0088 155.007 92.9531 155.511 92.8418C156.021 92.7246 156.404 92.5518 156.662 92.3232C156.92 92.0947 157.049 91.8223 157.049 91.5059C157.049 91.1836 156.92 90.9111 156.662 90.6885C156.404 90.4658 156.021 90.3018 155.511 90.1963C155.001 90.085 154.383 90.0293 153.656 90.0293ZM169.09 78.9287C170.291 78.9287 171.319 79.0312 172.175 79.2363C173.03 79.4414 173.681 79.749 174.126 80.1592C174.571 80.5635 174.794 81.0557 174.794 81.6357C174.794 82.2217 174.571 82.7197 174.126 83.1299C173.681 83.5342 173.03 83.8418 172.175 84.0527C171.319 84.2637 170.291 84.375 169.09 84.3867C167.877 84.375 166.843 84.2637 165.987 84.0527C165.132 83.8418 164.479 83.5342 164.027 83.1299C163.576 82.7197 163.351 82.2217 163.351 81.6357C163.351 81.0557 163.576 80.5635 164.027 80.1592C164.479 79.749 165.132 79.4414 165.987 79.2363C166.843 79.0312 167.877 78.9287 169.09 78.9287ZM169.09 80.3613C168.281 80.3613 167.602 80.4111 167.051 80.5107C166.5 80.6045 166.087 80.748 165.812 80.9414C165.536 81.1348 165.398 81.3662 165.398 81.6357C165.398 81.9346 165.533 82.1777 165.803 82.3652C166.072 82.5527 166.479 82.6934 167.024 82.7871C167.569 82.8809 168.258 82.9277 169.09 82.9277C169.928 82.9277 170.616 82.8809 171.155 82.7871C171.694 82.6934 172.102 82.5498 172.377 82.3564C172.652 82.1631 172.79 81.9229 172.79 81.6357C172.79 81.3662 172.649 81.1377 172.368 80.9502C172.087 80.7568 171.671 80.6104 171.12 80.5107C170.575 80.4111 169.898 80.3613 169.09 80.3613ZM176.323 86.8037H161.856V85.2393H176.323V86.8037ZM174.53 91.752H165.495V93.3428H163.562V90.3721H172.597V89.3086H163.553V87.8672H174.53V91.752ZM174.961 94.4238H163.562V92.9297H174.961V94.4238ZM196.494 86.4082H193.638V84.7998H196.494V86.4082ZM194.139 94.5381H192.188V78.6738H194.139V94.5381ZM184.198 90.0557H182.247V80.2119H184.198V90.0557ZM183.592 88.9834C184.822 88.9834 186.047 88.9277 187.266 88.8164C188.484 88.7051 189.715 88.5264 190.957 88.2803L191.177 89.915C189.929 90.167 188.681 90.3457 187.433 90.4512C186.19 90.5508 184.91 90.6006 183.592 90.6006H182.247V88.9834H183.592ZM203.271 94.0811H201.302V87.5684H203.271V94.0811ZM210.574 94.5557H208.623V78.6914H210.574V94.5557ZM197.109 86.6104C199.248 86.6104 201.123 86.5898 202.734 86.5488C204.352 86.502 205.907 86.4023 207.401 86.25L207.516 87.709C205.945 87.9141 204.313 88.0488 202.62 88.1133C200.933 88.1777 199.175 88.2012 197.347 88.1836L197.109 86.6104ZM209.001 90.7939H205.204V89.2734H209.001V90.7939ZM206.452 84.8877H198.568V83.3145H206.452V84.8877ZM200.528 83.7627H198.568V79.4648H200.528V83.7627ZM218.098 91.3477H216.173V86.7949H218.098V91.3477ZM223.978 91.3477H222.009V86.7949H223.978V91.3477ZM227.335 92.6396H212.815V91.0312H227.335V92.6396ZM220.049 79.5264C221.186 79.5264 222.199 79.7021 223.09 80.0537C223.986 80.3994 224.689 80.8916 225.199 81.5303C225.709 82.1689 225.964 82.9014 225.964 83.7275C225.964 84.5596 225.709 85.292 225.199 85.9248C224.695 86.5576 223.995 87.0469 223.099 87.3926C222.208 87.7383 221.191 87.9141 220.049 87.9199C218.906 87.9141 217.887 87.7383 216.99 87.3926C216.1 87.0469 215.399 86.5576 214.89 85.9248C214.386 85.292 214.134 84.5596 214.134 83.7275C214.134 82.9014 214.386 82.1689 214.89 81.5303C215.399 80.8916 216.103 80.3994 216.999 80.0537C217.896 79.7021 218.912 79.5264 220.049 79.5264ZM220.049 81.0908C219.258 81.085 218.561 81.1875 217.957 81.3984C217.359 81.6094 216.891 81.9141 216.551 82.3125C216.217 82.7109 216.05 83.1826 216.05 83.7275C216.05 84.2666 216.217 84.7383 216.551 85.1426C216.891 85.541 217.359 85.8516 217.957 86.0742C218.561 86.291 219.258 86.3994 220.049 86.3994C220.828 86.3994 221.52 86.291 222.123 86.0742C222.727 85.8516 223.195 85.541 223.529 85.1426C223.869 84.7383 224.039 84.2666 224.039 83.7275C224.039 83.1826 223.869 82.7139 223.529 82.3213C223.195 81.9229 222.727 81.6182 222.123 81.4072C221.525 81.1904 220.834 81.085 220.049 81.0908Z" fill="#FEFEFE"/>
</svg>
