<svg width="24" height="24" viewBox="0 0 24 24" fill="none" xmlns="http://www.w3.org/2000/svg">
<path d="M18.9322 14.981C18.6339 14.5043 18.4755 13.9534 18.4752 13.391V9.227C18.4752 7.50919 17.7928 5.86174 16.5782 4.64707C15.3635 3.4324 13.716 2.75 11.9982 2.75C10.2804 2.75 8.63296 3.4324 7.41829 4.64707C6.20362 5.86174 5.52122 7.50919 5.52122 9.227L5.52122 13.389C5.5213 13.952 5.36293 14.5037 5.06422 14.981L3.97622 16.721C3.88161 16.8724 3.82925 17.0463 3.82456 17.2248C3.81988 17.4032 3.86304 17.5796 3.94958 17.7358C4.03611 17.8919 4.16286 18.022 4.31666 18.1126C4.47046 18.2032 4.64572 18.251 4.82422 18.251H19.1722C19.3507 18.251 19.526 18.2032 19.6798 18.1126C19.8336 18.022 19.9603 17.8919 20.0469 17.7358C20.1334 17.5796 20.1766 17.4032 20.1719 17.2248C20.1672 17.0463 20.1148 16.8724 20.0202 16.721L18.9322 14.981Z" stroke="#FEFEFE" stroke-width="1.5" stroke-linecap="round" stroke-linejoin="round"/>
<path d="M10 21.25H14" stroke="#FEFEFE" stroke-width="1.5" stroke-linecap="round"/>
</svg>
