<svg width="24" height="24" viewBox="0 0 24 24" fill="none" xmlns="http://www.w3.org/2000/svg">
<rect width="24" height="24" fill="#282828"/>
<path d="M11.9997 3.55273L11.9997 20.4483C8.71446 20.4483 6.27352 16.1493 6.27352 16.1493H3.55192C3.30298 16.1493 3.06423 16.0504 2.8882 15.8744C2.71217 15.6984 2.61328 15.4596 2.61328 15.2107L2.61328 8.71996C2.61328 8.47102 2.71217 8.23227 2.8882 8.05624C3.06423 7.88021 3.30298 7.78132 3.55192 7.78132L6.27352 7.78132C6.27352 7.78132 8.71446 3.55273 11.9997 3.55273Z" stroke="#FEFEFE" stroke-width="1.5" stroke-linejoin="round"/>
<path d="M15.7539 7.77734C16.0471 8.03976 16.312 8.33218 16.5442 8.64981C17.2536 9.62301 17.6343 10.797 17.6312 12.0012C17.6312 13.2468 17.2341 14.3981 16.5621 15.3287C16.3256 15.6556 16.0546 15.9561 15.7539 16.2251" stroke="#FEFEFE" stroke-width="1.5" stroke-linecap="round" stroke-linejoin="round"/>
<path d="M16.8037 20.0653C19.5483 18.4274 21.3862 15.428 21.3862 11.9996C21.3862 8.62421 19.6046 5.66561 16.9309 4.01172" stroke="#FEFEFE" stroke-width="1.5" stroke-linecap="round"/>
</svg>
