<svg width="24" height="24" viewBox="0 0 24 24" fill="none" xmlns="http://www.w3.org/2000/svg">
<path d="M8.3623 3.33789L15.9961 3.33789C16.7691 3.33789 17.3134 3.33794 17.7383 3.36523C18.1585 3.39223 18.4053 3.44328 18.5908 3.51758C18.9822 3.67438 19.2667 3.9116 19.4316 4.16602C19.4915 4.25852 19.5447 4.39316 19.5752 4.68652C19.6074 4.99613 19.6084 5.40102 19.6084 6.0166V20.2744C19.6084 20.407 19.6084 20.5124 19.6064 20.6025C19.6063 20.6089 19.6046 20.6151 19.6045 20.6211L19.3652 20.5078C19.2691 20.4592 19.154 20.3982 19.0107 20.3232L12.5273 16.9258C12.3364 16.8257 12.113 16.8135 11.9141 16.8887L11.8311 16.9258L5.34766 20.3223L5.34668 20.3232C5.06024 20.4737 4.8839 20.5648 4.75195 20.6211C4.7518 20.6151 4.75209 20.6089 4.75195 20.6025C4.75001 20.5124 4.75 20.407 4.75 20.2744L4.75 6.0166C4.75 5.40102 4.75102 4.99613 4.7832 4.68652C4.81375 4.393 4.86682 4.25852 4.92676 4.16602C5.0917 3.91159 5.37615 3.67437 5.76758 3.51758C5.95311 3.44334 6.20008 3.39221 6.62012 3.36523C7.04503 3.33797 7.58946 3.33789 8.3623 3.33789Z" stroke="#FEFEFE" stroke-width="1.5" stroke-linecap="round" stroke-linejoin="round"/>
</svg>
