<svg width="24" height="24" viewBox="0 0 24 24" fill="none" xmlns="http://www.w3.org/2000/svg">
<path d="M6.16587 12.001L6.16587 8.97653C6.17726 8.38203 6.33732 7.79514 6.63688 7.2495C6.93644 6.70385 7.36962 6.21017 7.91158 5.79675C8.45355 5.38333 9.09365 5.05828 9.79522 4.84025C10.4968 4.62221 11.246 4.51546 12 4.52612C12.754 4.51546 13.5032 4.62221 14.2048 4.84025C14.9064 5.05828 15.5465 5.38333 16.0884 5.79675C16.6304 6.21017 17.0636 6.70385 17.3631 7.2495C17.6627 7.79514 17.8227 8.38203 17.8341 8.97653V12.001M13.8042 19.8498C15.3538 19.8498 16.0884 19.5916 16.7277 18.7027C17.3671 17.8138 17.8341 16.3484 17.8341 15.7384V13.1509M3.97806 10.276H5.4366C5.63001 10.276 5.8155 10.3366 5.95227 10.4444C6.08903 10.5522 6.16587 10.6985 6.16587 10.851L6.16587 14.3009C6.16587 14.4534 6.08903 14.5997 5.95227 14.7075C5.8155 14.8153 5.63001 14.8759 5.4366 14.8759H3.97806C3.59124 14.8759 3.22025 14.7548 2.94673 14.5391C2.6732 14.3234 2.51953 14.0309 2.51953 13.7259L2.51953 11.426C2.51953 11.121 2.6732 10.8285 2.94673 10.6128C3.22025 10.3972 3.59124 10.276 3.97806 10.276ZM20.0219 14.8759H18.5634C18.37 14.8759 18.1845 14.8153 18.0477 14.7075C17.911 14.5997 17.8341 14.4534 17.8341 14.3009V10.851C17.8341 10.6985 17.911 10.5522 18.0477 10.4444C18.1845 10.3366 18.37 10.276 18.5634 10.276H20.0219C20.4088 10.276 20.7797 10.3972 21.0533 10.6128C21.3268 10.8285 21.4805 11.121 21.4805 11.426V13.7259C21.4805 14.0309 21.3268 14.3234 21.0533 14.5391C20.7797 14.7548 20.4088 14.8759 20.0219 14.8759Z" stroke="#FEFEFE" stroke-width="1.5" stroke-linecap="round" stroke-linejoin="round"/>
</svg>
