<svg width="24" height="24" viewBox="0 0 24 24" fill="none" xmlns="http://www.w3.org/2000/svg">
<path d="M5.25 2.84766L14.7549 2.84766C15.1478 2.84778 15.5179 3.03257 15.7539 3.34668L19.75 8.66797C19.9124 8.8844 20 9.14833 20 9.41895L20 19.9004C20 20.5907 19.4404 21.1504 18.75 21.1504L5.25 21.1504C4.55964 21.1504 4 20.5907 4 19.9004L4 4.09766C4 3.4073 4.55964 2.84766 5.25 2.84766Z" stroke="#FEFEFE" stroke-width="1.5" stroke-linejoin="round"/>
<path d="M14.0024 8.54371C13.0979 8.14923 12.0876 8.06785 11.1313 8.31129C10.1749 8.55483 9.32587 9.11023 8.72016 9.88941C8.29041 10.4425 8.00103 11.0866 7.8686 11.7664L7.27778 10.9392C7.03717 10.6021 6.56804 10.5229 6.2309 10.7634C5.89401 11.004 5.81576 11.4723 6.0561 11.8093L7.48774 13.8152L7.57465 13.9158C7.79537 14.1313 8.13123 14.193 8.4184 14.0574L10.6459 13.0037L10.7133 12.9666C11.0386 12.7701 11.1694 12.3556 11.0034 12.0046C10.8262 11.6304 10.3787 11.4713 10.0043 11.6482L9.36371 11.9509C9.45942 11.5384 9.64166 11.1478 9.90473 10.8093C10.3058 10.2934 10.8681 9.92568 11.5014 9.76441C12.1346 9.60325 12.8039 9.65748 13.4028 9.91871C14.0017 10.18 14.4964 10.634 14.809 11.2078C15.1215 11.7816 15.2346 12.4437 15.1293 13.0886C15.0239 13.7336 14.706 14.3257 14.227 14.7703C13.7479 15.2148 13.1339 15.4867 12.4829 15.5437C11.8318 15.6006 11.1803 15.4393 10.6313 15.0847L10.5649 15.0466C10.2265 14.8738 9.80492 14.9815 9.59418 15.3074C9.36952 15.6552 9.47008 16.1197 9.81782 16.3445C10.6469 16.8799 11.6306 17.1238 12.6137 17.0379C13.5969 16.9518 14.524 16.5412 15.2475 15.8699C15.9709 15.1986 16.4496 14.3048 16.6088 13.3308C16.768 12.3569 16.5984 11.3567 16.1264 10.49C15.6543 9.62356 14.9068 8.93828 14.0024 8.54371Z" fill="#FEFEFE"/>
</svg>
