<svg width="24" height="24" viewBox="0 0 24 24" fill="none" xmlns="http://www.w3.org/2000/svg">
<g clip-path="url(#clip0_5418_20063)">
<path d="M6.37636 0.884506C7.37208 0.51324 8.45284 0.81849 9.11912 1.56767C9.38169 1.27153 9.71874 1.03345 10.1154 0.885458C11.4095 0.402926 12.8508 1.06031 13.3336 2.35434L14.0278 4.21542C14.2681 3.98277 14.5592 3.79419 14.8926 3.66979C16.1867 3.18742 17.6281 3.84472 18.1109 5.13868L20.6163 11.8556C20.6257 11.8809 20.6331 11.9067 20.6397 11.9323C21.2154 13.5265 20.8465 15.2348 19.8972 16.6817C18.9386 18.1428 17.3643 19.3879 15.4187 20.1136C13.4733 20.8393 11.4679 20.9293 9.78667 20.453C8.11801 19.98 6.71686 18.9271 6.11024 17.3393C6.1011 17.32 6.09257 17.3003 6.08497 17.28L2.91949 8.79348C2.43692 7.49934 3.09467 6.05899 4.38872 5.57616C4.72216 5.45191 5.06559 5.40367 5.39961 5.42215L4.90713 4.10183C4.42458 2.80776 5.08246 1.36742 6.37636 0.884506ZM6.90058 2.28992C6.38287 2.48331 6.11952 3.05972 6.31254 3.5776L7.59955 7.028C7.60175 7.03377 7.60479 7.03926 7.60695 7.04505L8.7257 10.0444C8.72787 10.0502 8.72926 10.0563 8.73127 10.0621L8.82342 10.3091C8.96797 10.6971 8.77064 11.1291 8.38283 11.274C7.99488 11.4185 7.56283 11.2212 7.41801 10.8334L6.19448 7.55314C5.99528 7.04632 5.42527 6.79093 4.91294 6.98158C4.39508 7.17488 4.13185 7.7513 4.32491 8.26926L7.49038 16.7557C7.49357 16.7643 7.49616 16.7731 7.49902 16.7817L7.50177 16.7807C7.89427 17.8329 8.85182 18.6282 10.1955 19.0091C11.5389 19.3897 13.2166 19.334 14.8945 18.7082C16.5724 18.0823 17.8767 17.0257 18.6427 15.8583C19.4087 14.6904 19.6116 13.4624 19.219 12.4101L19.2236 12.4084C19.2196 12.3988 19.2145 12.3896 19.2109 12.3798L16.7055 5.6629C16.5122 5.14513 15.9347 4.88236 15.4169 5.0752C14.899 5.26851 14.6358 5.84493 14.8288 6.36289L16.2663 10.2168C16.3467 10.4327 16.3178 10.6605 16.2125 10.8466C16.1843 10.8966 16.1504 10.9429 16.1111 10.9855C16.0341 11.069 15.9394 11.1391 15.8257 11.1816L15.8245 11.181L15.8248 11.182C15.1483 11.4343 14.4715 11.7365 14.066 12.2508C13.7185 12.6917 13.464 13.4339 13.9924 14.8506C14.137 15.2385 13.9396 15.6705 13.5518 15.8154C13.1638 15.9598 12.7317 15.7626 12.587 15.3748C11.9253 13.6007 12.1377 12.2753 12.8889 11.3223C13.3709 10.7113 14.0287 10.3236 14.607 10.0603L11.9282 2.87857C11.7349 2.36072 11.1576 2.09786 10.6396 2.29087C10.1218 2.48418 9.85852 3.0606 10.0516 3.57855L12.2171 9.38412C12.3617 9.77209 12.1643 10.2041 11.7765 10.3489C11.3884 10.4937 10.9565 10.2964 10.8117 9.90835L8.18918 2.87761C7.99588 2.35977 7.41852 2.09691 6.90058 2.28992Z" fill="#FEFEFE"/>
<path d="M16.415 1.47266C18.2539 1.70581 19.0925 2.33547 19.8708 3.80457" stroke="#FEFEFE" stroke-width="1.5" stroke-linecap="round"/>
<path d="M8.46875 22.0273C6.62994 21.7942 5.7913 21.1645 5.01303 19.6954" stroke="#FEFEFE" stroke-width="1.5" stroke-linecap="round"/>
</g>
<defs>
<clipPath id="clip0_5418_20063">
<rect width="24" height="24" fill="white"/>
</clipPath>
</defs>
</svg>
