<svg width="35" height="38" viewBox="0 0 35 38" fill="none" xmlns="http://www.w3.org/2000/svg">
<path fill-rule="evenodd" clip-rule="evenodd" d="M6.3002 11.6401C6.3002 8.71211 7.48019 5.90404 9.5806 3.83364C11.681 1.76324 14.5298 0.600098 17.5002 0.600098C20.4706 0.600098 23.3194 1.76324 25.4198 3.83364C27.5202 5.90404 28.7002 8.71211 28.7002 11.6401H30.5669C31.557 11.6401 32.5066 12.0278 33.2067 12.7179C33.9069 13.4081 34.3002 14.3441 34.3002 15.3201V33.7201C34.3002 34.6961 33.9069 35.6321 33.2067 36.3223C32.5066 37.0124 31.557 37.4001 30.5669 37.4001H4.43353C3.44339 37.4001 2.4938 37.0124 1.79366 36.3223C1.09353 35.6321 0.700195 34.6961 0.700195 33.7201V15.3201C0.700195 14.3441 1.09353 13.4081 1.79366 12.7179C2.4938 12.0278 3.44339 11.6401 4.43353 11.6401H6.3002ZM17.5002 4.2801C19.4805 4.2801 21.3797 5.05552 22.7799 6.43579C24.1802 7.81606 24.9669 9.6881 24.9669 11.6401H10.0335C10.0335 9.6881 10.8202 7.81606 12.2205 6.43579C13.6207 5.05552 15.5199 4.2801 17.5002 4.2801ZM21.2335 22.6801C21.2335 23.3261 21.061 23.9606 20.7333 24.52C20.4057 25.0795 19.9344 25.544 19.3669 25.867V28.2001C19.3669 28.6881 19.1702 29.1561 18.8201 29.5012C18.4701 29.8462 17.9953 30.0401 17.5002 30.0401C17.0051 30.0401 16.5303 29.8462 16.1803 29.5012C15.8302 29.1561 15.6335 28.6881 15.6335 28.2001V25.867C14.9218 25.4619 14.3656 24.8367 14.0512 24.0883C13.7367 23.3399 13.6815 22.5101 13.8942 21.7276C14.1069 20.9452 14.5756 20.2538 15.2276 19.7606C15.8796 19.2675 16.6784 19.0001 17.5002 19.0001C18.4903 19.0001 19.4399 19.3878 20.1401 20.0779C20.8402 20.7681 21.2335 21.7041 21.2335 22.6801Z" fill="#FEFEFE"/>
</svg>
